ISO-10303-21;
HEADER;
FILE_DESCRIPTION(('FreeCAD Model'),'2;1');
FILE_NAME('Open CASCADE Shape Model','2026-09-24T12:36:12',(''),(''),
  'Open CASCADE STEP processor 7.8','FreeCAD','Unknown');
FILE_SCHEMA(('AUTOMOTIVE_DESIGN { 1 0 10303 214 1 1 1 1 }'));
ENDSEC;
DATA;
#1 = APPLICATION_PROTOCOL_DEFINITION('international standard',
  'automotive_design',2000,#2);
#2 = APPLICATION_CONTEXT(
  'core data for automotive mechanical design processes');
#3 = SHAPE_DEFINITION_REPRESENTATION(#4,#10);
#4 = PRODUCT_DEFINITION_SHAPE('','',#5);
#5 = PRODUCT_DEFINITION('design','',#6,#9);
#6 = PRODUCT_DEFINITION_FORMATION('','',#7);
#7 = PRODUCT('Main','Main','',(#8));
#8 = PRODUCT_CONTEXT('',#2,'mechanical');
#9 = PRODUCT_DEFINITION_CONTEXT('part definition',#2,'design');
#10 = ADVANCED_BREP_SHAPE_REPRESENTATION('',(#11,#15),#1975);
#11 = AXIS2_PLACEMENT_3D('',#12,#13,#14);
#12 = CARTESIAN_POINT('',(0.,0.,0.));
#13 = DIRECTION('',(0.,0.,1.));
#14 = DIRECTION('',(1.,0.,-0.));
#15 = MANIFOLD_SOLID_BREP('',#16);
#16 = CLOSED_SHELL('',(#17,#127,#158,#183,#208,#232,#256,#281,#306,#323,
    #456,#480,#582,#599,#672,#740,#771,#795,#819,#836,#867,#891,#915,
    #932,#963,#987,#1011,#1028,#1053,#1078,#1229,#1285,#1359,#1384,#1409
    ,#1435,#1453,#1471,#1493,#1515,#1537,#1554,#1571,#1583,#1600,#1617,
    #1635,#1653,#1670,#1687,#1705,#1723,#1745,#1767,#1785,#1803,#1828,
    #1853,#1878,#1903,#1921,#1939,#1957));
#17 = ADVANCED_FACE('',(#18,#88),#122,.F.);
#18 = FACE_BOUND('',#19,.F.);
#19 = EDGE_LOOP('',(#20,#30,#39,#47,#56,#64,#73,#81));
#20 = ORIENTED_EDGE('',*,*,#21,.T.);
#21 = EDGE_CURVE('',#22,#24,#26,.T.);
#22 = VERTEX_POINT('',#23);
#23 = CARTESIAN_POINT('',(2.95,-28.25,39.4));
#24 = VERTEX_POINT('',#25);
#25 = CARTESIAN_POINT('',(-3.35,-28.25,39.4));
#26 = LINE('',#27,#28);
#27 = CARTESIAN_POINT('',(4.4,-28.25,39.4));
#28 = VECTOR('',#29,1.);
#29 = DIRECTION('',(-1.,0.,0.));
#30 = ORIENTED_EDGE('',*,*,#31,.T.);
#31 = EDGE_CURVE('',#24,#32,#34,.T.);
#32 = VERTEX_POINT('',#33);
#33 = CARTESIAN_POINT('',(-4.8,-28.25,37.95));
#34 = CIRCLE('',#35,1.45);
#35 = AXIS2_PLACEMENT_3D('',#36,#37,#38);
#36 = CARTESIAN_POINT('',(-3.35,-28.25,37.95));
#37 = DIRECTION('',(0.,-1.,2.2E-16));
#38 = DIRECTION('',(0.,2.2E-16,1.));
#39 = ORIENTED_EDGE('',*,*,#40,.T.);
#40 = EDGE_CURVE('',#32,#41,#43,.T.);
#41 = VERTEX_POINT('',#42);
#42 = CARTESIAN_POINT('',(-4.8,-28.25,37.35));
#43 = LINE('',#44,#45);
#44 = CARTESIAN_POINT('',(-4.8,-28.25,39.4));
#45 = VECTOR('',#46,1.);
#46 = DIRECTION('',(0.,0.,-1.));
#47 = ORIENTED_EDGE('',*,*,#48,.F.);
#48 = EDGE_CURVE('',#49,#41,#51,.T.);
#49 = VERTEX_POINT('',#50);
#50 = CARTESIAN_POINT('',(-3.35,-28.25,35.9));
#51 = CIRCLE('',#52,1.45);
#52 = AXIS2_PLACEMENT_3D('',#53,#54,#55);
#53 = CARTESIAN_POINT('',(-3.35,-28.25,37.35));
#54 = DIRECTION('',(0.,1.,-2.2E-16));
#55 = DIRECTION('',(0.,2.2E-16,1.));
#56 = ORIENTED_EDGE('',*,*,#57,.T.);
#57 = EDGE_CURVE('',#49,#58,#60,.T.);
#58 = VERTEX_POINT('',#59);
#59 = CARTESIAN_POINT('',(2.95,-28.25,35.9));
#60 = LINE('',#61,#62);
#61 = CARTESIAN_POINT('',(-4.8,-28.25,35.9));
#62 = VECTOR('',#63,1.);
#63 = DIRECTION('',(1.,0.,0.));
#64 = ORIENTED_EDGE('',*,*,#65,.F.);
#65 = EDGE_CURVE('',#66,#58,#68,.T.);
#66 = VERTEX_POINT('',#67);
#67 = CARTESIAN_POINT('',(4.4,-28.25,37.35));
#68 = CIRCLE('',#69,1.45);
#69 = AXIS2_PLACEMENT_3D('',#70,#71,#72);
#70 = CARTESIAN_POINT('',(2.95,-28.25,37.35));
#71 = DIRECTION('',(0.,1.,-2.2E-16));
#72 = DIRECTION('',(0.,2.2E-16,1.));
#73 = ORIENTED_EDGE('',*,*,#74,.T.);
#74 = EDGE_CURVE('',#66,#75,#77,.T.);
#75 = VERTEX_POINT('',#76);
#76 = CARTESIAN_POINT('',(4.4,-28.25,37.95));
#77 = LINE('',#78,#79);
#78 = CARTESIAN_POINT('',(4.4,-28.25,35.9));
#79 = VECTOR('',#80,1.);
#80 = DIRECTION('',(0.,0.,1.));
#81 = ORIENTED_EDGE('',*,*,#82,.F.);
#82 = EDGE_CURVE('',#22,#75,#83,.T.);
#83 = CIRCLE('',#84,1.45);
#84 = AXIS2_PLACEMENT_3D('',#85,#86,#87);
#85 = CARTESIAN_POINT('',(2.95,-28.25,37.95));
#86 = DIRECTION('',(0.,1.,-2.2E-16));
#87 = DIRECTION('',(0.,2.2E-16,1.));
#88 = FACE_BOUND('',#89,.F.);
#89 = EDGE_LOOP('',(#90,#100,#108,#116));
#90 = ORIENTED_EDGE('',*,*,#91,.T.);
#91 = EDGE_CURVE('',#92,#94,#96,.T.);
#92 = VERTEX_POINT('',#93);
#93 = CARTESIAN_POINT('',(-46.5,-28.25,0.));
#94 = VERTEX_POINT('',#95);
#95 = CARTESIAN_POINT('',(-46.5,-28.25,45.));
#96 = LINE('',#97,#98);
#97 = CARTESIAN_POINT('',(-46.5,-28.25,0.));
#98 = VECTOR('',#99,1.);
#99 = DIRECTION('',(0.,0.,1.));
#100 = ORIENTED_EDGE('',*,*,#101,.T.);
#101 = EDGE_CURVE('',#94,#102,#104,.T.);
#102 = VERTEX_POINT('',#103);
#103 = CARTESIAN_POINT('',(46.5,-28.25,45.));
#104 = LINE('',#105,#106);
#105 = CARTESIAN_POINT('',(-46.5,-28.25,45.));
#106 = VECTOR('',#107,1.);
#107 = DIRECTION('',(1.,0.,0.));
#108 = ORIENTED_EDGE('',*,*,#109,.F.);
#109 = EDGE_CURVE('',#110,#102,#112,.T.);
#110 = VERTEX_POINT('',#111);
#111 = CARTESIAN_POINT('',(46.5,-28.25,0.));
#112 = LINE('',#113,#114);
#113 = CARTESIAN_POINT('',(46.5,-28.25,0.));
#114 = VECTOR('',#115,1.);
#115 = DIRECTION('',(0.,0.,1.));
#116 = ORIENTED_EDGE('',*,*,#117,.F.);
#117 = EDGE_CURVE('',#92,#110,#118,.T.);
#118 = LINE('',#119,#120);
#119 = CARTESIAN_POINT('',(-46.5,-28.25,0.));
#120 = VECTOR('',#121,1.);
#121 = DIRECTION('',(1.,0.,0.));
#122 = PLANE('',#123);
#123 = AXIS2_PLACEMENT_3D('',#124,#125,#126);
#124 = CARTESIAN_POINT('',(-46.5,-28.25,0.));
#125 = DIRECTION('',(0.,1.,0.));
#126 = DIRECTION('',(1.,0.,0.));
#127 = ADVANCED_FACE('',(#128),#153,.F.);
#128 = FACE_BOUND('',#129,.F.);
#129 = EDGE_LOOP('',(#130,#131,#139,#147));
#130 = ORIENTED_EDGE('',*,*,#21,.F.);
#131 = ORIENTED_EDGE('',*,*,#132,.T.);
#132 = EDGE_CURVE('',#22,#133,#135,.T.);
#133 = VERTEX_POINT('',#134);
#134 = CARTESIAN_POINT('',(2.95,-26.25,39.4));
#135 = LINE('',#136,#137);
#136 = CARTESIAN_POINT('',(2.95,-28.25,39.4));
#137 = VECTOR('',#138,1.);
#138 = DIRECTION('',(0.,1.,-2.2E-16));
#139 = ORIENTED_EDGE('',*,*,#140,.T.);
#140 = EDGE_CURVE('',#133,#141,#143,.T.);
#141 = VERTEX_POINT('',#142);
#142 = CARTESIAN_POINT('',(-3.35,-26.25,39.4));
#143 = LINE('',#144,#145);
#144 = CARTESIAN_POINT('',(-17.55,-26.25,39.4));
#145 = VECTOR('',#146,1.);
#146 = DIRECTION('',(-1.,0.,0.));
#147 = ORIENTED_EDGE('',*,*,#148,.F.);
#148 = EDGE_CURVE('',#24,#141,#149,.T.);
#149 = LINE('',#150,#151);
#150 = CARTESIAN_POINT('',(-3.35,-28.25,39.4));
#151 = VECTOR('',#152,1.);
#152 = DIRECTION('',(0.,1.,-2.2E-16));
#153 = PLANE('',#154);
#154 = AXIS2_PLACEMENT_3D('',#155,#156,#157);
#155 = CARTESIAN_POINT('',(4.4,-28.25,39.4));
#156 = DIRECTION('',(0.,2.2E-16,1.));
#157 = DIRECTION('',(-1.,0.,0.));
#158 = ADVANCED_FACE('',(#159),#178,.F.);
#159 = FACE_BOUND('',#160,.F.);
#160 = EDGE_LOOP('',(#161,#162,#170,#177));
#161 = ORIENTED_EDGE('',*,*,#82,.T.);
#162 = ORIENTED_EDGE('',*,*,#163,.T.);
#163 = EDGE_CURVE('',#75,#164,#166,.T.);
#164 = VERTEX_POINT('',#165);
#165 = CARTESIAN_POINT('',(4.4,-26.25,37.95));
#166 = LINE('',#167,#168);
#167 = CARTESIAN_POINT('',(4.4,-28.25,37.95));
#168 = VECTOR('',#169,1.);
#169 = DIRECTION('',(0.,1.,-2.2E-16));
#170 = ORIENTED_EDGE('',*,*,#171,.F.);
#171 = EDGE_CURVE('',#133,#164,#172,.T.);
#172 = CIRCLE('',#173,1.45);
#173 = AXIS2_PLACEMENT_3D('',#174,#175,#176);
#174 = CARTESIAN_POINT('',(2.95,-26.25,37.95));
#175 = DIRECTION('',(0.,1.,-2.2E-16));
#176 = DIRECTION('',(0.,2.2E-16,1.));
#177 = ORIENTED_EDGE('',*,*,#132,.F.);
#178 = CYLINDRICAL_SURFACE('',#179,1.45);
#179 = AXIS2_PLACEMENT_3D('',#180,#181,#182);
#180 = CARTESIAN_POINT('',(2.95,-28.25,37.95));
#181 = DIRECTION('',(0.,1.,-2.2E-16));
#182 = DIRECTION('',(0.,2.2E-16,1.));
#183 = ADVANCED_FACE('',(#184),#203,.F.);
#184 = FACE_BOUND('',#185,.T.);
#185 = EDGE_LOOP('',(#186,#187,#195,#202));
#186 = ORIENTED_EDGE('',*,*,#31,.T.);
#187 = ORIENTED_EDGE('',*,*,#188,.T.);
#188 = EDGE_CURVE('',#32,#189,#191,.T.);
#189 = VERTEX_POINT('',#190);
#190 = CARTESIAN_POINT('',(-4.8,-26.25,37.95));
#191 = LINE('',#192,#193);
#192 = CARTESIAN_POINT('',(-4.8,-28.25,37.95));
#193 = VECTOR('',#194,1.);
#194 = DIRECTION('',(0.,1.,-2.2E-16));
#195 = ORIENTED_EDGE('',*,*,#196,.F.);
#196 = EDGE_CURVE('',#141,#189,#197,.T.);
#197 = CIRCLE('',#198,1.45);
#198 = AXIS2_PLACEMENT_3D('',#199,#200,#201);
#199 = CARTESIAN_POINT('',(-3.35,-26.25,37.95));
#200 = DIRECTION('',(0.,-1.,2.2E-16));
#201 = DIRECTION('',(0.,2.2E-16,1.));
#202 = ORIENTED_EDGE('',*,*,#148,.F.);
#203 = CYLINDRICAL_SURFACE('',#204,1.45);
#204 = AXIS2_PLACEMENT_3D('',#205,#206,#207);
#205 = CARTESIAN_POINT('',(-3.35,-28.25,37.95));
#206 = DIRECTION('',(0.,1.,-2.2E-16));
#207 = DIRECTION('',(0.,2.2E-16,1.));
#208 = ADVANCED_FACE('',(#209),#227,.F.);
#209 = FACE_BOUND('',#210,.F.);
#210 = EDGE_LOOP('',(#211,#212,#220,#226));
#211 = ORIENTED_EDGE('',*,*,#74,.F.);
#212 = ORIENTED_EDGE('',*,*,#213,.T.);
#213 = EDGE_CURVE('',#66,#214,#216,.T.);
#214 = VERTEX_POINT('',#215);
#215 = CARTESIAN_POINT('',(4.4,-26.25,37.35));
#216 = LINE('',#217,#218);
#217 = CARTESIAN_POINT('',(4.4,-28.25,37.35));
#218 = VECTOR('',#219,1.);
#219 = DIRECTION('',(0.,1.,-2.2E-16));
#220 = ORIENTED_EDGE('',*,*,#221,.T.);
#221 = EDGE_CURVE('',#214,#164,#222,.T.);
#222 = LINE('',#223,#224);
#223 = CARTESIAN_POINT('',(4.4,-26.25,17.95));
#224 = VECTOR('',#225,1.);
#225 = DIRECTION('',(0.,0.,1.));
#226 = ORIENTED_EDGE('',*,*,#163,.F.);
#227 = PLANE('',#228);
#228 = AXIS2_PLACEMENT_3D('',#229,#230,#231);
#229 = CARTESIAN_POINT('',(4.4,-28.25,35.9));
#230 = DIRECTION('',(1.,0.,0.));
#231 = DIRECTION('',(0.,2.2E-16,1.));
#232 = ADVANCED_FACE('',(#233),#251,.F.);
#233 = FACE_BOUND('',#234,.F.);
#234 = EDGE_LOOP('',(#235,#236,#237,#245));
#235 = ORIENTED_EDGE('',*,*,#40,.F.);
#236 = ORIENTED_EDGE('',*,*,#188,.T.);
#237 = ORIENTED_EDGE('',*,*,#238,.T.);
#238 = EDGE_CURVE('',#189,#239,#241,.T.);
#239 = VERTEX_POINT('',#240);
#240 = CARTESIAN_POINT('',(-4.8,-26.25,37.35));
#241 = LINE('',#242,#243);
#242 = CARTESIAN_POINT('',(-4.8,-26.25,19.7));
#243 = VECTOR('',#244,1.);
#244 = DIRECTION('',(0.,0.,-1.));
#245 = ORIENTED_EDGE('',*,*,#246,.F.);
#246 = EDGE_CURVE('',#41,#239,#247,.T.);
#247 = LINE('',#248,#249);
#248 = CARTESIAN_POINT('',(-4.8,-28.25,37.35));
#249 = VECTOR('',#250,1.);
#250 = DIRECTION('',(0.,1.,-2.2E-16));
#251 = PLANE('',#252);
#252 = AXIS2_PLACEMENT_3D('',#253,#254,#255);
#253 = CARTESIAN_POINT('',(-4.8,-28.25,39.4));
#254 = DIRECTION('',(-1.,0.,0.));
#255 = DIRECTION('',(0.,-2.2E-16,-1.));
#256 = ADVANCED_FACE('',(#257),#276,.F.);
#257 = FACE_BOUND('',#258,.F.);
#258 = EDGE_LOOP('',(#259,#260,#268,#275));
#259 = ORIENTED_EDGE('',*,*,#65,.T.);
#260 = ORIENTED_EDGE('',*,*,#261,.T.);
#261 = EDGE_CURVE('',#58,#262,#264,.T.);
#262 = VERTEX_POINT('',#263);
#263 = CARTESIAN_POINT('',(2.95,-26.25,35.9));
#264 = LINE('',#265,#266);
#265 = CARTESIAN_POINT('',(2.95,-28.25,35.9));
#266 = VECTOR('',#267,1.);
#267 = DIRECTION('',(0.,1.,-2.2E-16));
#268 = ORIENTED_EDGE('',*,*,#269,.F.);
#269 = EDGE_CURVE('',#214,#262,#270,.T.);
#270 = CIRCLE('',#271,1.45);
#271 = AXIS2_PLACEMENT_3D('',#272,#273,#274);
#272 = CARTESIAN_POINT('',(2.95,-26.25,37.35));
#273 = DIRECTION('',(0.,1.,-2.2E-16));
#274 = DIRECTION('',(0.,2.2E-16,1.));
#275 = ORIENTED_EDGE('',*,*,#213,.F.);
#276 = CYLINDRICAL_SURFACE('',#277,1.45);
#277 = AXIS2_PLACEMENT_3D('',#278,#279,#280);
#278 = CARTESIAN_POINT('',(2.95,-28.25,37.35));
#279 = DIRECTION('',(0.,1.,-2.2E-16));
#280 = DIRECTION('',(1.,0.,0.));
#281 = ADVANCED_FACE('',(#282),#301,.F.);
#282 = FACE_BOUND('',#283,.F.);
#283 = EDGE_LOOP('',(#284,#285,#286,#295));
#284 = ORIENTED_EDGE('',*,*,#48,.T.);
#285 = ORIENTED_EDGE('',*,*,#246,.T.);
#286 = ORIENTED_EDGE('',*,*,#287,.F.);
#287 = EDGE_CURVE('',#288,#239,#290,.T.);
#288 = VERTEX_POINT('',#289);
#289 = CARTESIAN_POINT('',(-3.35,-26.25,35.9));
#290 = CIRCLE('',#291,1.45);
#291 = AXIS2_PLACEMENT_3D('',#292,#293,#294);
#292 = CARTESIAN_POINT('',(-3.35,-26.25,37.35));
#293 = DIRECTION('',(0.,1.,-2.2E-16));
#294 = DIRECTION('',(0.,2.2E-16,1.));
#295 = ORIENTED_EDGE('',*,*,#296,.F.);
#296 = EDGE_CURVE('',#49,#288,#297,.T.);
#297 = LINE('',#298,#299);
#298 = CARTESIAN_POINT('',(-3.35,-28.25,35.9));
#299 = VECTOR('',#300,1.);
#300 = DIRECTION('',(0.,1.,-2.2E-16));
#301 = CYLINDRICAL_SURFACE('',#302,1.45);
#302 = AXIS2_PLACEMENT_3D('',#303,#304,#305);
#303 = CARTESIAN_POINT('',(-3.35,-28.25,37.35));
#304 = DIRECTION('',(0.,1.,-2.2E-16));
#305 = DIRECTION('',(0.,-2.2E-16,-1.));
#306 = ADVANCED_FACE('',(#307),#318,.F.);
#307 = FACE_BOUND('',#308,.F.);
#308 = EDGE_LOOP('',(#309,#310,#311,#317));
#309 = ORIENTED_EDGE('',*,*,#57,.F.);
#310 = ORIENTED_EDGE('',*,*,#296,.T.);
#311 = ORIENTED_EDGE('',*,*,#312,.T.);
#312 = EDGE_CURVE('',#288,#262,#313,.T.);
#313 = LINE('',#314,#315);
#314 = CARTESIAN_POINT('',(-22.15,-26.25,35.9));
#315 = VECTOR('',#316,1.);
#316 = DIRECTION('',(1.,0.,0.));
#317 = ORIENTED_EDGE('',*,*,#261,.F.);
#318 = PLANE('',#319);
#319 = AXIS2_PLACEMENT_3D('',#320,#321,#322);
#320 = CARTESIAN_POINT('',(-4.8,-28.25,35.9));
#321 = DIRECTION('',(0.,-2.2E-16,-1.));
#322 = DIRECTION('',(1.,0.,0.));
#323 = ADVANCED_FACE('',(#324,#349,#383,#417),#451,.F.);
#324 = FACE_BOUND('',#325,.F.);
#325 = EDGE_LOOP('',(#326,#336,#342,#343));
#326 = ORIENTED_EDGE('',*,*,#327,.T.);
#327 = EDGE_CURVE('',#328,#330,#332,.T.);
#328 = VERTEX_POINT('',#329);
#329 = CARTESIAN_POINT('',(-46.5,28.25,0.));
#330 = VERTEX_POINT('',#331);
#331 = CARTESIAN_POINT('',(-46.5,28.25,45.));
#332 = LINE('',#333,#334);
#333 = CARTESIAN_POINT('',(-46.5,28.25,0.));
#334 = VECTOR('',#335,1.);
#335 = DIRECTION('',(0.,0.,1.));
#336 = ORIENTED_EDGE('',*,*,#337,.T.);
#337 = EDGE_CURVE('',#330,#94,#338,.T.);
#338 = LINE('',#339,#340);
#339 = CARTESIAN_POINT('',(-46.5,28.25,45.));
#340 = VECTOR('',#341,1.);
#341 = DIRECTION('',(0.,-1.,0.));
#342 = ORIENTED_EDGE('',*,*,#91,.F.);
#343 = ORIENTED_EDGE('',*,*,#344,.F.);
#344 = EDGE_CURVE('',#328,#92,#345,.T.);
#345 = LINE('',#346,#347);
#346 = CARTESIAN_POINT('',(-46.5,28.25,0.));
#347 = VECTOR('',#348,1.);
#348 = DIRECTION('',(0.,-1.,0.));
#349 = FACE_BOUND('',#350,.F.);
#350 = EDGE_LOOP('',(#351,#361,#369,#377));
#351 = ORIENTED_EDGE('',*,*,#352,.T.);
#352 = EDGE_CURVE('',#353,#355,#357,.T.);
#353 = VERTEX_POINT('',#354);
#354 = CARTESIAN_POINT('',(-46.5,-7.,35.));
#355 = VERTEX_POINT('',#356);
#356 = CARTESIAN_POINT('',(-46.5,-5.,35.));
#357 = LINE('',#358,#359);
#358 = CARTESIAN_POINT('',(-46.5,-7.,35.));
#359 = VECTOR('',#360,1.);
#360 = DIRECTION('',(0.,1.,0.));
#361 = ORIENTED_EDGE('',*,*,#362,.T.);
#362 = EDGE_CURVE('',#355,#363,#365,.T.);
#363 = VERTEX_POINT('',#364);
#364 = CARTESIAN_POINT('',(-46.5,-5.,15.));
#365 = LINE('',#366,#367);
#366 = CARTESIAN_POINT('',(-46.5,-5.,35.));
#367 = VECTOR('',#368,1.);
#368 = DIRECTION('',(0.,0.,-1.));
#369 = ORIENTED_EDGE('',*,*,#370,.T.);
#370 = EDGE_CURVE('',#363,#371,#373,.T.);
#371 = VERTEX_POINT('',#372);
#372 = CARTESIAN_POINT('',(-46.5,-7.,15.));
#373 = LINE('',#374,#375);
#374 = CARTESIAN_POINT('',(-46.5,-5.,15.));
#375 = VECTOR('',#376,1.);
#376 = DIRECTION('',(0.,-1.,0.));
#377 = ORIENTED_EDGE('',*,*,#378,.T.);
#378 = EDGE_CURVE('',#371,#353,#379,.T.);
#379 = LINE('',#380,#381);
#380 = CARTESIAN_POINT('',(-46.5,-7.,15.));
#381 = VECTOR('',#382,1.);
#382 = DIRECTION('',(0.,0.,1.));
#383 = FACE_BOUND('',#384,.F.);
#384 = EDGE_LOOP('',(#385,#395,#403,#411));
#385 = ORIENTED_EDGE('',*,*,#386,.T.);
#386 = EDGE_CURVE('',#387,#389,#391,.T.);
#387 = VERTEX_POINT('',#388);
#388 = CARTESIAN_POINT('',(-46.5,-9.,35.));
#389 = VERTEX_POINT('',#390);
#390 = CARTESIAN_POINT('',(-46.5,-9.,15.));
#391 = LINE('',#392,#393);
#392 = CARTESIAN_POINT('',(-46.5,-9.,35.));
#393 = VECTOR('',#394,1.);
#394 = DIRECTION('',(0.,0.,-1.));
#395 = ORIENTED_EDGE('',*,*,#396,.T.);
#396 = EDGE_CURVE('',#389,#397,#399,.T.);
#397 = VERTEX_POINT('',#398);
#398 = CARTESIAN_POINT('',(-46.5,-11.,15.));
#399 = LINE('',#400,#401);
#400 = CARTESIAN_POINT('',(-46.5,-9.,15.));
#401 = VECTOR('',#402,1.);
#402 = DIRECTION('',(0.,-1.,0.));
#403 = ORIENTED_EDGE('',*,*,#404,.T.);
#404 = EDGE_CURVE('',#397,#405,#407,.T.);
#405 = VERTEX_POINT('',#406);
#406 = CARTESIAN_POINT('',(-46.5,-11.,35.));
#407 = LINE('',#408,#409);
#408 = CARTESIAN_POINT('',(-46.5,-11.,15.));
#409 = VECTOR('',#410,1.);
#410 = DIRECTION('',(0.,0.,1.));
#411 = ORIENTED_EDGE('',*,*,#412,.T.);
#412 = EDGE_CURVE('',#405,#387,#413,.T.);
#413 = LINE('',#414,#415);
#414 = CARTESIAN_POINT('',(-46.5,-11.,35.));
#415 = VECTOR('',#416,1.);
#416 = DIRECTION('',(0.,1.,0.));
#417 = FACE_BOUND('',#418,.F.);
#418 = EDGE_LOOP('',(#419,#429,#437,#445));
#419 = ORIENTED_EDGE('',*,*,#420,.T.);
#420 = EDGE_CURVE('',#421,#423,#425,.T.);
#421 = VERTEX_POINT('',#422);
#422 = CARTESIAN_POINT('',(-46.5,-13.,35.));
#423 = VERTEX_POINT('',#424);
#424 = CARTESIAN_POINT('',(-46.5,-13.,15.));
#425 = LINE('',#426,#427);
#426 = CARTESIAN_POINT('',(-46.5,-13.,35.));
#427 = VECTOR('',#428,1.);
#428 = DIRECTION('',(0.,0.,-1.));
#429 = ORIENTED_EDGE('',*,*,#430,.T.);
#430 = EDGE_CURVE('',#423,#431,#433,.T.);
#431 = VERTEX_POINT('',#432);
#432 = CARTESIAN_POINT('',(-46.5,-15.,15.));
#433 = LINE('',#434,#435);
#434 = CARTESIAN_POINT('',(-46.5,-13.,15.));
#435 = VECTOR('',#436,1.);
#436 = DIRECTION('',(0.,-1.,0.));
#437 = ORIENTED_EDGE('',*,*,#438,.T.);
#438 = EDGE_CURVE('',#431,#439,#441,.T.);
#439 = VERTEX_POINT('',#440);
#440 = CARTESIAN_POINT('',(-46.5,-15.,35.));
#441 = LINE('',#442,#443);
#442 = CARTESIAN_POINT('',(-46.5,-15.,15.));
#443 = VECTOR('',#444,1.);
#444 = DIRECTION('',(0.,0.,1.));
#445 = ORIENTED_EDGE('',*,*,#446,.T.);
#446 = EDGE_CURVE('',#439,#421,#447,.T.);
#447 = LINE('',#448,#449);
#448 = CARTESIAN_POINT('',(-46.5,-15.,35.));
#449 = VECTOR('',#450,1.);
#450 = DIRECTION('',(0.,1.,0.));
#451 = PLANE('',#452);
#452 = AXIS2_PLACEMENT_3D('',#453,#454,#455);
#453 = CARTESIAN_POINT('',(-46.5,28.25,0.));
#454 = DIRECTION('',(1.,0.,0.));
#455 = DIRECTION('',(0.,-1.,0.));
#456 = ADVANCED_FACE('',(#457),#475,.T.);
#457 = FACE_BOUND('',#458,.T.);
#458 = EDGE_LOOP('',(#459,#467,#473,#474));
#459 = ORIENTED_EDGE('',*,*,#460,.F.);
#460 = EDGE_CURVE('',#461,#328,#463,.T.);
#461 = VERTEX_POINT('',#462);
#462 = CARTESIAN_POINT('',(46.5,28.25,0.));
#463 = LINE('',#464,#465);
#464 = CARTESIAN_POINT('',(46.5,28.25,0.));
#465 = VECTOR('',#466,1.);
#466 = DIRECTION('',(-1.,0.,0.));
#467 = ORIENTED_EDGE('',*,*,#468,.F.);
#468 = EDGE_CURVE('',#110,#461,#469,.T.);
#469 = LINE('',#470,#471);
#470 = CARTESIAN_POINT('',(46.5,-28.25,0.));
#471 = VECTOR('',#472,1.);
#472 = DIRECTION('',(0.,1.,0.));
#473 = ORIENTED_EDGE('',*,*,#117,.F.);
#474 = ORIENTED_EDGE('',*,*,#344,.F.);
#475 = PLANE('',#476);
#476 = AXIS2_PLACEMENT_3D('',#477,#478,#479);
#477 = CARTESIAN_POINT('',(0.,0.,0.));
#478 = DIRECTION('',(-0.,-0.,-1.));
#479 = DIRECTION('',(-1.,0.,0.));
#480 = ADVANCED_FACE('',(#481,#499,#510,#521,#555,#566),#577,.T.);
#481 = FACE_BOUND('',#482,.T.);
#482 = EDGE_LOOP('',(#483,#491,#492,#493));
#483 = ORIENTED_EDGE('',*,*,#484,.T.);
#484 = EDGE_CURVE('',#485,#330,#487,.T.);
#485 = VERTEX_POINT('',#486);
#486 = CARTESIAN_POINT('',(46.5,28.25,45.));
#487 = LINE('',#488,#489);
#488 = CARTESIAN_POINT('',(46.5,28.25,45.));
#489 = VECTOR('',#490,1.);
#490 = DIRECTION('',(-1.,0.,0.));
#491 = ORIENTED_EDGE('',*,*,#337,.T.);
#492 = ORIENTED_EDGE('',*,*,#101,.T.);
#493 = ORIENTED_EDGE('',*,*,#494,.T.);
#494 = EDGE_CURVE('',#102,#485,#495,.T.);
#495 = LINE('',#496,#497);
#496 = CARTESIAN_POINT('',(46.5,-28.25,45.));
#497 = VECTOR('',#498,1.);
#498 = DIRECTION('',(0.,1.,0.));
#499 = FACE_BOUND('',#500,.T.);
#500 = EDGE_LOOP('',(#501));
#501 = ORIENTED_EDGE('',*,*,#502,.F.);
#502 = EDGE_CURVE('',#503,#503,#505,.T.);
#503 = VERTEX_POINT('',#504);
#504 = CARTESIAN_POINT('',(-41.1,-25.25,45.));
#505 = CIRCLE('',#506,1.9);
#506 = AXIS2_PLACEMENT_3D('',#507,#508,#509);
#507 = CARTESIAN_POINT('',(-43.,-25.25,45.));
#508 = DIRECTION('',(0.,0.,1.));
#509 = DIRECTION('',(1.,0.,0.));
#510 = FACE_BOUND('',#511,.T.);
#511 = EDGE_LOOP('',(#512));
#512 = ORIENTED_EDGE('',*,*,#513,.F.);
#513 = EDGE_CURVE('',#514,#514,#516,.T.);
#514 = VERTEX_POINT('',#515);
#515 = CARTESIAN_POINT('',(44.9,-25.25,45.));
#516 = CIRCLE('',#517,1.9);
#517 = AXIS2_PLACEMENT_3D('',#518,#519,#520);
#518 = CARTESIAN_POINT('',(43.,-25.25,45.));
#519 = DIRECTION('',(0.,0.,1.));
#520 = DIRECTION('',(1.,0.,0.));
#521 = FACE_BOUND('',#522,.T.);
#522 = EDGE_LOOP('',(#523,#533,#541,#549));
#523 = ORIENTED_EDGE('',*,*,#524,.F.);
#524 = EDGE_CURVE('',#525,#527,#529,.T.);
#525 = VERTEX_POINT('',#526);
#526 = CARTESIAN_POINT('',(39.5,26.25,45.));
#527 = VERTEX_POINT('',#528);
#528 = CARTESIAN_POINT('',(-39.5,26.25,45.));
#529 = LINE('',#530,#531);
#530 = CARTESIAN_POINT('',(-30.5,26.25,45.));
#531 = VECTOR('',#532,1.);
#532 = DIRECTION('',(-1.,0.,0.));
#533 = ORIENTED_EDGE('',*,*,#534,.F.);
#534 = EDGE_CURVE('',#535,#525,#537,.T.);
#535 = VERTEX_POINT('',#536);
#536 = CARTESIAN_POINT('',(39.5,-26.25,45.));
#537 = LINE('',#538,#539);
#538 = CARTESIAN_POINT('',(39.5,17.25,45.));
#539 = VECTOR('',#540,1.);
#540 = DIRECTION('',(0.,1.,0.));
#541 = ORIENTED_EDGE('',*,*,#542,.F.);
#542 = EDGE_CURVE('',#543,#535,#545,.T.);
#543 = VERTEX_POINT('',#544);
#544 = CARTESIAN_POINT('',(-39.5,-26.25,45.));
#545 = LINE('',#546,#547);
#546 = CARTESIAN_POINT('',(-39.5,-26.25,45.));
#547 = VECTOR('',#548,1.);
#548 = DIRECTION('',(1.,0.,0.));
#549 = ORIENTED_EDGE('',*,*,#550,.F.);
#550 = EDGE_CURVE('',#527,#543,#551,.T.);
#551 = LINE('',#552,#553);
#552 = CARTESIAN_POINT('',(-39.5,26.25,45.));
#553 = VECTOR('',#554,1.);
#554 = DIRECTION('',(0.,-1.,0.));
#555 = FACE_BOUND('',#556,.T.);
#556 = EDGE_LOOP('',(#557));
#557 = ORIENTED_EDGE('',*,*,#558,.F.);
#558 = EDGE_CURVE('',#559,#559,#561,.T.);
#559 = VERTEX_POINT('',#560);
#560 = CARTESIAN_POINT('',(-41.1,25.25,45.));
#561 = CIRCLE('',#562,1.9);
#562 = AXIS2_PLACEMENT_3D('',#563,#564,#565);
#563 = CARTESIAN_POINT('',(-43.,25.25,45.));
#564 = DIRECTION('',(0.,0.,1.));
#565 = DIRECTION('',(1.,0.,0.));
#566 = FACE_BOUND('',#567,.T.);
#567 = EDGE_LOOP('',(#568));
#568 = ORIENTED_EDGE('',*,*,#569,.F.);
#569 = EDGE_CURVE('',#570,#570,#572,.T.);
#570 = VERTEX_POINT('',#571);
#571 = CARTESIAN_POINT('',(44.9,25.25,45.));
#572 = CIRCLE('',#573,1.9);
#573 = AXIS2_PLACEMENT_3D('',#574,#575,#576);
#574 = CARTESIAN_POINT('',(43.,25.25,45.));
#575 = DIRECTION('',(0.,0.,1.));
#576 = DIRECTION('',(1.,0.,0.));
#577 = PLANE('',#578);
#578 = AXIS2_PLACEMENT_3D('',#579,#580,#581);
#579 = CARTESIAN_POINT('',(1.52E-15,1.52E-15,45.));
#580 = DIRECTION('',(0.,0.,1.));
#581 = DIRECTION('',(1.,0.,0.));
#582 = ADVANCED_FACE('',(#583),#594,.F.);
#583 = FACE_BOUND('',#584,.F.);
#584 = EDGE_LOOP('',(#585,#586,#587,#593));
#585 = ORIENTED_EDGE('',*,*,#109,.T.);
#586 = ORIENTED_EDGE('',*,*,#494,.T.);
#587 = ORIENTED_EDGE('',*,*,#588,.F.);
#588 = EDGE_CURVE('',#461,#485,#589,.T.);
#589 = LINE('',#590,#591);
#590 = CARTESIAN_POINT('',(46.5,28.25,0.));
#591 = VECTOR('',#592,1.);
#592 = DIRECTION('',(0.,0.,1.));
#593 = ORIENTED_EDGE('',*,*,#468,.F.);
#594 = PLANE('',#595);
#595 = AXIS2_PLACEMENT_3D('',#596,#597,#598);
#596 = CARTESIAN_POINT('',(46.5,-28.25,0.));
#597 = DIRECTION('',(-1.,0.,0.));
#598 = DIRECTION('',(0.,1.,0.));
#599 = ADVANCED_FACE('',(#600,#610),#667,.T.);
#600 = FACE_BOUND('',#601,.T.);
#601 = EDGE_LOOP('',(#602,#603,#604,#605,#606,#607,#608,#609));
#602 = ORIENTED_EDGE('',*,*,#140,.T.);
#603 = ORIENTED_EDGE('',*,*,#196,.T.);
#604 = ORIENTED_EDGE('',*,*,#238,.T.);
#605 = ORIENTED_EDGE('',*,*,#287,.F.);
#606 = ORIENTED_EDGE('',*,*,#312,.T.);
#607 = ORIENTED_EDGE('',*,*,#269,.F.);
#608 = ORIENTED_EDGE('',*,*,#221,.T.);
#609 = ORIENTED_EDGE('',*,*,#171,.F.);
#610 = FACE_BOUND('',#611,.T.);
#611 = EDGE_LOOP('',(#612,#622,#630,#638,#644,#645,#653,#661));
#612 = ORIENTED_EDGE('',*,*,#613,.F.);
#613 = EDGE_CURVE('',#614,#616,#618,.T.);
#614 = VERTEX_POINT('',#615);
#615 = CARTESIAN_POINT('',(-30.5,-26.25,5.));
#616 = VERTEX_POINT('',#617);
#617 = CARTESIAN_POINT('',(30.5,-26.25,5.));
#618 = LINE('',#619,#620);
#619 = CARTESIAN_POINT('',(-39.5,-26.25,5.));
#620 = VECTOR('',#621,1.);
#621 = DIRECTION('',(1.,0.,0.));
#622 = ORIENTED_EDGE('',*,*,#623,.T.);
#623 = EDGE_CURVE('',#614,#624,#626,.T.);
#624 = VERTEX_POINT('',#625);
#625 = CARTESIAN_POINT('',(-30.5,-26.25,41.));
#626 = LINE('',#627,#628);
#627 = CARTESIAN_POINT('',(-30.5,-26.25,5.));
#628 = VECTOR('',#629,1.);
#629 = DIRECTION('',(0.,0.,1.));
#630 = ORIENTED_EDGE('',*,*,#631,.F.);
#631 = EDGE_CURVE('',#632,#624,#634,.T.);
#632 = VERTEX_POINT('',#633);
#633 = CARTESIAN_POINT('',(-39.5,-26.25,41.));
#634 = LINE('',#635,#636);
#635 = CARTESIAN_POINT('',(-39.5,-26.25,41.));
#636 = VECTOR('',#637,1.);
#637 = DIRECTION('',(1.,0.,0.));
#638 = ORIENTED_EDGE('',*,*,#639,.T.);
#639 = EDGE_CURVE('',#632,#543,#640,.T.);
#640 = LINE('',#641,#642);
#641 = CARTESIAN_POINT('',(-39.5,-26.25,0.));
#642 = VECTOR('',#643,1.);
#643 = DIRECTION('',(0.,0.,1.));
#644 = ORIENTED_EDGE('',*,*,#542,.T.);
#645 = ORIENTED_EDGE('',*,*,#646,.F.);
#646 = EDGE_CURVE('',#647,#535,#649,.T.);
#647 = VERTEX_POINT('',#648);
#648 = CARTESIAN_POINT('',(39.5,-26.25,41.));
#649 = LINE('',#650,#651);
#650 = CARTESIAN_POINT('',(39.5,-26.25,0.));
#651 = VECTOR('',#652,1.);
#652 = DIRECTION('',(0.,0.,1.));
#653 = ORIENTED_EDGE('',*,*,#654,.F.);
#654 = EDGE_CURVE('',#655,#647,#657,.T.);
#655 = VERTEX_POINT('',#656);
#656 = CARTESIAN_POINT('',(30.5,-26.25,41.));
#657 = LINE('',#658,#659);
#658 = CARTESIAN_POINT('',(30.5,-26.25,41.));
#659 = VECTOR('',#660,1.);
#660 = DIRECTION('',(1.,0.,0.));
#661 = ORIENTED_EDGE('',*,*,#662,.F.);
#662 = EDGE_CURVE('',#616,#655,#663,.T.);
#663 = LINE('',#664,#665);
#664 = CARTESIAN_POINT('',(30.5,-26.25,5.));
#665 = VECTOR('',#666,1.);
#666 = DIRECTION('',(0.,0.,1.));
#667 = PLANE('',#668);
#668 = AXIS2_PLACEMENT_3D('',#669,#670,#671);
#669 = CARTESIAN_POINT('',(-39.5,-26.25,0.));
#670 = DIRECTION('',(0.,1.,0.));
#671 = DIRECTION('',(1.,0.,0.));
#672 = ADVANCED_FACE('',(#673,#679,#713,#724),#735,.F.);
#673 = FACE_BOUND('',#674,.F.);
#674 = EDGE_LOOP('',(#675,#676,#677,#678));
#675 = ORIENTED_EDGE('',*,*,#588,.T.);
#676 = ORIENTED_EDGE('',*,*,#484,.T.);
#677 = ORIENTED_EDGE('',*,*,#327,.F.);
#678 = ORIENTED_EDGE('',*,*,#460,.F.);
#679 = FACE_BOUND('',#680,.F.);
#680 = EDGE_LOOP('',(#681,#691,#699,#707));
#681 = ORIENTED_EDGE('',*,*,#682,.T.);
#682 = EDGE_CURVE('',#683,#685,#687,.T.);
#683 = VERTEX_POINT('',#684);
#684 = CARTESIAN_POINT('',(-31.,28.25,26.35));
#685 = VERTEX_POINT('',#686);
#686 = CARTESIAN_POINT('',(31.75,28.25,26.35));
#687 = LINE('',#688,#689);
#688 = CARTESIAN_POINT('',(-31.,28.25,26.35));
#689 = VECTOR('',#690,1.);
#690 = DIRECTION('',(1.,0.,0.));
#691 = ORIENTED_EDGE('',*,*,#692,.T.);
#692 = EDGE_CURVE('',#685,#693,#695,.T.);
#693 = VERTEX_POINT('',#694);
#694 = CARTESIAN_POINT('',(31.75,28.25,8.1));
#695 = LINE('',#696,#697);
#696 = CARTESIAN_POINT('',(31.75,28.25,26.35));
#697 = VECTOR('',#698,1.);
#698 = DIRECTION('',(0.,0.,-1.));
#699 = ORIENTED_EDGE('',*,*,#700,.T.);
#700 = EDGE_CURVE('',#693,#701,#703,.T.);
#701 = VERTEX_POINT('',#702);
#702 = CARTESIAN_POINT('',(-31.,28.25,8.1));
#703 = LINE('',#704,#705);
#704 = CARTESIAN_POINT('',(31.75,28.25,8.1));
#705 = VECTOR('',#706,1.);
#706 = DIRECTION('',(-1.,0.,0.));
#707 = ORIENTED_EDGE('',*,*,#708,.T.);
#708 = EDGE_CURVE('',#701,#683,#709,.T.);
#709 = LINE('',#710,#711);
#710 = CARTESIAN_POINT('',(-31.,28.25,8.1));
#711 = VECTOR('',#712,1.);
#712 = DIRECTION('',(0.,0.,1.));
#713 = FACE_BOUND('',#714,.F.);
#714 = EDGE_LOOP('',(#715));
#715 = ORIENTED_EDGE('',*,*,#716,.T.);
#716 = EDGE_CURVE('',#717,#717,#719,.T.);
#717 = VERTEX_POINT('',#718);
#718 = CARTESIAN_POINT('',(-36.97,28.25,25.3));
#719 = CIRCLE('',#720,1.4);
#720 = AXIS2_PLACEMENT_3D('',#721,#722,#723);
#721 = CARTESIAN_POINT('',(-35.57,28.25,25.3));
#722 = DIRECTION('',(0.,1.,-2.22044604925E-16));
#723 = DIRECTION('',(-1.,0.,0.));
#724 = FACE_BOUND('',#725,.F.);
#725 = EDGE_LOOP('',(#726));
#726 = ORIENTED_EDGE('',*,*,#727,.T.);
#727 = EDGE_CURVE('',#728,#728,#730,.T.);
#728 = VERTEX_POINT('',#729);
#729 = CARTESIAN_POINT('',(-36.97,28.25,9.05));
#730 = CIRCLE('',#731,1.4);
#731 = AXIS2_PLACEMENT_3D('',#732,#733,#734);
#732 = CARTESIAN_POINT('',(-35.57,28.25,9.05));
#733 = DIRECTION('',(0.,1.,-2.22044604925E-16));
#734 = DIRECTION('',(-1.,0.,0.));
#735 = PLANE('',#736);
#736 = AXIS2_PLACEMENT_3D('',#737,#738,#739);
#737 = CARTESIAN_POINT('',(46.5,28.25,0.));
#738 = DIRECTION('',(0.,-1.,0.));
#739 = DIRECTION('',(-1.,0.,0.));
#740 = ADVANCED_FACE('',(#741),#766,.F.);
#741 = FACE_BOUND('',#742,.F.);
#742 = EDGE_LOOP('',(#743,#744,#752,#760));
#743 = ORIENTED_EDGE('',*,*,#352,.F.);
#744 = ORIENTED_EDGE('',*,*,#745,.T.);
#745 = EDGE_CURVE('',#353,#746,#748,.T.);
#746 = VERTEX_POINT('',#747);
#747 = CARTESIAN_POINT('',(-39.5,-7.,35.));
#748 = LINE('',#749,#750);
#749 = CARTESIAN_POINT('',(-46.5,-7.,35.));
#750 = VECTOR('',#751,1.);
#751 = DIRECTION('',(1.,0.,0.));
#752 = ORIENTED_EDGE('',*,*,#753,.T.);
#753 = EDGE_CURVE('',#746,#754,#756,.T.);
#754 = VERTEX_POINT('',#755);
#755 = CARTESIAN_POINT('',(-39.5,-5.,35.));
#756 = LINE('',#757,#758);
#757 = CARTESIAN_POINT('',(-39.5,-1.981527093596,35.));
#758 = VECTOR('',#759,1.);
#759 = DIRECTION('',(0.,1.,0.));
#760 = ORIENTED_EDGE('',*,*,#761,.F.);
#761 = EDGE_CURVE('',#355,#754,#762,.T.);
#762 = LINE('',#763,#764);
#763 = CARTESIAN_POINT('',(-46.5,-5.,35.));
#764 = VECTOR('',#765,1.);
#765 = DIRECTION('',(1.,0.,0.));
#766 = PLANE('',#767);
#767 = AXIS2_PLACEMENT_3D('',#768,#769,#770);
#768 = CARTESIAN_POINT('',(-46.5,-7.,35.));
#769 = DIRECTION('',(0.,0.,1.));
#770 = DIRECTION('',(0.,1.,0.));
#771 = ADVANCED_FACE('',(#772),#790,.F.);
#772 = FACE_BOUND('',#773,.F.);
#773 = EDGE_LOOP('',(#774,#775,#783,#789));
#774 = ORIENTED_EDGE('',*,*,#378,.F.);
#775 = ORIENTED_EDGE('',*,*,#776,.T.);
#776 = EDGE_CURVE('',#371,#777,#779,.T.);
#777 = VERTEX_POINT('',#778);
#778 = CARTESIAN_POINT('',(-39.5,-7.,15.));
#779 = LINE('',#780,#781);
#780 = CARTESIAN_POINT('',(-46.5,-7.,15.));
#781 = VECTOR('',#782,1.);
#782 = DIRECTION('',(1.,0.,0.));
#783 = ORIENTED_EDGE('',*,*,#784,.T.);
#784 = EDGE_CURVE('',#777,#746,#785,.T.);
#785 = LINE('',#786,#787);
#786 = CARTESIAN_POINT('',(-39.5,-7.,21.26354679803));
#787 = VECTOR('',#788,1.);
#788 = DIRECTION('',(0.,0.,1.));
#789 = ORIENTED_EDGE('',*,*,#745,.F.);
#790 = PLANE('',#791);
#791 = AXIS2_PLACEMENT_3D('',#792,#793,#794);
#792 = CARTESIAN_POINT('',(-46.5,-7.,15.));
#793 = DIRECTION('',(0.,-1.,0.));
#794 = DIRECTION('',(0.,0.,1.));
#795 = ADVANCED_FACE('',(#796),#814,.F.);
#796 = FACE_BOUND('',#797,.F.);
#797 = EDGE_LOOP('',(#798,#799,#807,#813));
#798 = ORIENTED_EDGE('',*,*,#370,.F.);
#799 = ORIENTED_EDGE('',*,*,#800,.T.);
#800 = EDGE_CURVE('',#363,#801,#803,.T.);
#801 = VERTEX_POINT('',#802);
#802 = CARTESIAN_POINT('',(-39.5,-5.,15.));
#803 = LINE('',#804,#805);
#804 = CARTESIAN_POINT('',(-46.5,-5.,15.));
#805 = VECTOR('',#806,1.);
#806 = DIRECTION('',(1.,0.,0.));
#807 = ORIENTED_EDGE('',*,*,#808,.T.);
#808 = EDGE_CURVE('',#801,#777,#809,.T.);
#809 = LINE('',#810,#811);
#810 = CARTESIAN_POINT('',(-39.5,-0.981527093596,15.));
#811 = VECTOR('',#812,1.);
#812 = DIRECTION('',(0.,-1.,0.));
#813 = ORIENTED_EDGE('',*,*,#776,.F.);
#814 = PLANE('',#815);
#815 = AXIS2_PLACEMENT_3D('',#816,#817,#818);
#816 = CARTESIAN_POINT('',(-46.5,-5.,15.));
#817 = DIRECTION('',(0.,0.,-1.));
#818 = DIRECTION('',(0.,-1.,0.));
#819 = ADVANCED_FACE('',(#820),#831,.F.);
#820 = FACE_BOUND('',#821,.F.);
#821 = EDGE_LOOP('',(#822,#823,#824,#830));
#822 = ORIENTED_EDGE('',*,*,#362,.F.);
#823 = ORIENTED_EDGE('',*,*,#761,.T.);
#824 = ORIENTED_EDGE('',*,*,#825,.T.);
#825 = EDGE_CURVE('',#754,#801,#826,.T.);
#826 = LINE('',#827,#828);
#827 = CARTESIAN_POINT('',(-39.5,-5.,31.26354679803));
#828 = VECTOR('',#829,1.);
#829 = DIRECTION('',(0.,0.,-1.));
#830 = ORIENTED_EDGE('',*,*,#800,.F.);
#831 = PLANE('',#832);
#832 = AXIS2_PLACEMENT_3D('',#833,#834,#835);
#833 = CARTESIAN_POINT('',(-46.5,-5.,35.));
#834 = DIRECTION('',(0.,1.,0.));
#835 = DIRECTION('',(0.,0.,-1.));
#836 = ADVANCED_FACE('',(#837),#862,.F.);
#837 = FACE_BOUND('',#838,.F.);
#838 = EDGE_LOOP('',(#839,#840,#848,#856));
#839 = ORIENTED_EDGE('',*,*,#386,.F.);
#840 = ORIENTED_EDGE('',*,*,#841,.T.);
#841 = EDGE_CURVE('',#387,#842,#844,.T.);
#842 = VERTEX_POINT('',#843);
#843 = CARTESIAN_POINT('',(-39.5,-9.,35.));
#844 = LINE('',#845,#846);
#845 = CARTESIAN_POINT('',(-46.5,-9.,35.));
#846 = VECTOR('',#847,1.);
#847 = DIRECTION('',(1.,0.,0.));
#848 = ORIENTED_EDGE('',*,*,#849,.T.);
#849 = EDGE_CURVE('',#842,#850,#852,.T.);
#850 = VERTEX_POINT('',#851);
#851 = CARTESIAN_POINT('',(-39.5,-9.,15.));
#852 = LINE('',#853,#854);
#853 = CARTESIAN_POINT('',(-39.5,-9.,31.26354679803));
#854 = VECTOR('',#855,1.);
#855 = DIRECTION('',(0.,0.,-1.));
#856 = ORIENTED_EDGE('',*,*,#857,.F.);
#857 = EDGE_CURVE('',#389,#850,#858,.T.);
#858 = LINE('',#859,#860);
#859 = CARTESIAN_POINT('',(-46.5,-9.,15.));
#860 = VECTOR('',#861,1.);
#861 = DIRECTION('',(1.,0.,0.));
#862 = PLANE('',#863);
#863 = AXIS2_PLACEMENT_3D('',#864,#865,#866);
#864 = CARTESIAN_POINT('',(-46.5,-9.,35.));
#865 = DIRECTION('',(0.,1.,0.));
#866 = DIRECTION('',(0.,0.,-1.));
#867 = ADVANCED_FACE('',(#868),#886,.F.);
#868 = FACE_BOUND('',#869,.F.);
#869 = EDGE_LOOP('',(#870,#871,#879,#885));
#870 = ORIENTED_EDGE('',*,*,#412,.F.);
#871 = ORIENTED_EDGE('',*,*,#872,.T.);
#872 = EDGE_CURVE('',#405,#873,#875,.T.);
#873 = VERTEX_POINT('',#874);
#874 = CARTESIAN_POINT('',(-39.5,-11.,35.));
#875 = LINE('',#876,#877);
#876 = CARTESIAN_POINT('',(-46.5,-11.,35.));
#877 = VECTOR('',#878,1.);
#878 = DIRECTION('',(1.,0.,0.));
#879 = ORIENTED_EDGE('',*,*,#880,.T.);
#880 = EDGE_CURVE('',#873,#842,#881,.T.);
#881 = LINE('',#882,#883);
#882 = CARTESIAN_POINT('',(-39.5,-3.981527093596,35.));
#883 = VECTOR('',#884,1.);
#884 = DIRECTION('',(0.,1.,0.));
#885 = ORIENTED_EDGE('',*,*,#841,.F.);
#886 = PLANE('',#887);
#887 = AXIS2_PLACEMENT_3D('',#888,#889,#890);
#888 = CARTESIAN_POINT('',(-46.5,-11.,35.));
#889 = DIRECTION('',(0.,0.,1.));
#890 = DIRECTION('',(0.,1.,0.));
#891 = ADVANCED_FACE('',(#892),#910,.F.);
#892 = FACE_BOUND('',#893,.F.);
#893 = EDGE_LOOP('',(#894,#895,#903,#909));
#894 = ORIENTED_EDGE('',*,*,#404,.F.);
#895 = ORIENTED_EDGE('',*,*,#896,.T.);
#896 = EDGE_CURVE('',#397,#897,#899,.T.);
#897 = VERTEX_POINT('',#898);
#898 = CARTESIAN_POINT('',(-39.5,-11.,15.));
#899 = LINE('',#900,#901);
#900 = CARTESIAN_POINT('',(-46.5,-11.,15.));
#901 = VECTOR('',#902,1.);
#902 = DIRECTION('',(1.,0.,0.));
#903 = ORIENTED_EDGE('',*,*,#904,.T.);
#904 = EDGE_CURVE('',#897,#873,#905,.T.);
#905 = LINE('',#906,#907);
#906 = CARTESIAN_POINT('',(-39.5,-11.,21.26354679803));
#907 = VECTOR('',#908,1.);
#908 = DIRECTION('',(0.,0.,1.));
#909 = ORIENTED_EDGE('',*,*,#872,.F.);
#910 = PLANE('',#911);
#911 = AXIS2_PLACEMENT_3D('',#912,#913,#914);
#912 = CARTESIAN_POINT('',(-46.5,-11.,15.));
#913 = DIRECTION('',(0.,-1.,0.));
#914 = DIRECTION('',(0.,0.,1.));
#915 = ADVANCED_FACE('',(#916),#927,.F.);
#916 = FACE_BOUND('',#917,.F.);
#917 = EDGE_LOOP('',(#918,#919,#920,#926));
#918 = ORIENTED_EDGE('',*,*,#396,.F.);
#919 = ORIENTED_EDGE('',*,*,#857,.T.);
#920 = ORIENTED_EDGE('',*,*,#921,.T.);
#921 = EDGE_CURVE('',#850,#897,#922,.T.);
#922 = LINE('',#923,#924);
#923 = CARTESIAN_POINT('',(-39.5,-2.981527093596,15.));
#924 = VECTOR('',#925,1.);
#925 = DIRECTION('',(0.,-1.,0.));
#926 = ORIENTED_EDGE('',*,*,#896,.F.);
#927 = PLANE('',#928);
#928 = AXIS2_PLACEMENT_3D('',#929,#930,#931);
#929 = CARTESIAN_POINT('',(-46.5,-9.,15.));
#930 = DIRECTION('',(0.,0.,-1.));
#931 = DIRECTION('',(0.,-1.,0.));
#932 = ADVANCED_FACE('',(#933),#958,.F.);
#933 = FACE_BOUND('',#934,.F.);
#934 = EDGE_LOOP('',(#935,#936,#944,#952));
#935 = ORIENTED_EDGE('',*,*,#420,.F.);
#936 = ORIENTED_EDGE('',*,*,#937,.T.);
#937 = EDGE_CURVE('',#421,#938,#940,.T.);
#938 = VERTEX_POINT('',#939);
#939 = CARTESIAN_POINT('',(-39.5,-13.,35.));
#940 = LINE('',#941,#942);
#941 = CARTESIAN_POINT('',(-46.5,-13.,35.));
#942 = VECTOR('',#943,1.);
#943 = DIRECTION('',(1.,0.,0.));
#944 = ORIENTED_EDGE('',*,*,#945,.T.);
#945 = EDGE_CURVE('',#938,#946,#948,.T.);
#946 = VERTEX_POINT('',#947);
#947 = CARTESIAN_POINT('',(-39.5,-13.,15.));
#948 = LINE('',#949,#950);
#949 = CARTESIAN_POINT('',(-39.5,-13.,31.26354679803));
#950 = VECTOR('',#951,1.);
#951 = DIRECTION('',(0.,0.,-1.));
#952 = ORIENTED_EDGE('',*,*,#953,.F.);
#953 = EDGE_CURVE('',#423,#946,#954,.T.);
#954 = LINE('',#955,#956);
#955 = CARTESIAN_POINT('',(-46.5,-13.,15.));
#956 = VECTOR('',#957,1.);
#957 = DIRECTION('',(1.,0.,0.));
#958 = PLANE('',#959);
#959 = AXIS2_PLACEMENT_3D('',#960,#961,#962);
#960 = CARTESIAN_POINT('',(-46.5,-13.,35.));
#961 = DIRECTION('',(0.,1.,0.));
#962 = DIRECTION('',(0.,0.,-1.));
#963 = ADVANCED_FACE('',(#964),#982,.F.);
#964 = FACE_BOUND('',#965,.F.);
#965 = EDGE_LOOP('',(#966,#967,#975,#981));
#966 = ORIENTED_EDGE('',*,*,#446,.F.);
#967 = ORIENTED_EDGE('',*,*,#968,.T.);
#968 = EDGE_CURVE('',#439,#969,#971,.T.);
#969 = VERTEX_POINT('',#970);
#970 = CARTESIAN_POINT('',(-39.5,-15.,35.));
#971 = LINE('',#972,#973);
#972 = CARTESIAN_POINT('',(-46.5,-15.,35.));
#973 = VECTOR('',#974,1.);
#974 = DIRECTION('',(1.,0.,0.));
#975 = ORIENTED_EDGE('',*,*,#976,.T.);
#976 = EDGE_CURVE('',#969,#938,#977,.T.);
#977 = LINE('',#978,#979);
#978 = CARTESIAN_POINT('',(-39.5,-5.981527093596,35.));
#979 = VECTOR('',#980,1.);
#980 = DIRECTION('',(0.,1.,0.));
#981 = ORIENTED_EDGE('',*,*,#937,.F.);
#982 = PLANE('',#983);
#983 = AXIS2_PLACEMENT_3D('',#984,#985,#986);
#984 = CARTESIAN_POINT('',(-46.5,-15.,35.));
#985 = DIRECTION('',(0.,0.,1.));
#986 = DIRECTION('',(0.,1.,0.));
#987 = ADVANCED_FACE('',(#988),#1006,.F.);
#988 = FACE_BOUND('',#989,.F.);
#989 = EDGE_LOOP('',(#990,#991,#999,#1005));
#990 = ORIENTED_EDGE('',*,*,#438,.F.);
#991 = ORIENTED_EDGE('',*,*,#992,.T.);
#992 = EDGE_CURVE('',#431,#993,#995,.T.);
#993 = VERTEX_POINT('',#994);
#994 = CARTESIAN_POINT('',(-39.5,-15.,15.));
#995 = LINE('',#996,#997);
#996 = CARTESIAN_POINT('',(-46.5,-15.,15.));
#997 = VECTOR('',#998,1.);
#998 = DIRECTION('',(1.,0.,0.));
#999 = ORIENTED_EDGE('',*,*,#1000,.T.);
#1000 = EDGE_CURVE('',#993,#969,#1001,.T.);
#1001 = LINE('',#1002,#1003);
#1002 = CARTESIAN_POINT('',(-39.5,-15.,21.26354679803));
#1003 = VECTOR('',#1004,1.);
#1004 = DIRECTION('',(0.,0.,1.));
#1005 = ORIENTED_EDGE('',*,*,#968,.F.);
#1006 = PLANE('',#1007);
#1007 = AXIS2_PLACEMENT_3D('',#1008,#1009,#1010);
#1008 = CARTESIAN_POINT('',(-46.5,-15.,15.));
#1009 = DIRECTION('',(0.,-1.,0.));
#1010 = DIRECTION('',(0.,0.,1.));
#1011 = ADVANCED_FACE('',(#1012),#1023,.F.);
#1012 = FACE_BOUND('',#1013,.F.);
#1013 = EDGE_LOOP('',(#1014,#1015,#1016,#1022));
#1014 = ORIENTED_EDGE('',*,*,#430,.F.);
#1015 = ORIENTED_EDGE('',*,*,#953,.T.);
#1016 = ORIENTED_EDGE('',*,*,#1017,.T.);
#1017 = EDGE_CURVE('',#946,#993,#1018,.T.);
#1018 = LINE('',#1019,#1020);
#1019 = CARTESIAN_POINT('',(-39.5,-4.981527093596,15.));
#1020 = VECTOR('',#1021,1.);
#1021 = DIRECTION('',(0.,-1.,0.));
#1022 = ORIENTED_EDGE('',*,*,#992,.F.);
#1023 = PLANE('',#1024);
#1024 = AXIS2_PLACEMENT_3D('',#1025,#1026,#1027);
#1025 = CARTESIAN_POINT('',(-46.5,-13.,15.));
#1026 = DIRECTION('',(0.,0.,-1.));
#1027 = DIRECTION('',(0.,-1.,0.));
#1028 = ADVANCED_FACE('',(#1029),#1048,.F.);
#1029 = FACE_BOUND('',#1030,.T.);
#1030 = EDGE_LOOP('',(#1031,#1039,#1040,#1041));
#1031 = ORIENTED_EDGE('',*,*,#1032,.F.);
#1032 = EDGE_CURVE('',#503,#1033,#1035,.T.);
#1033 = VERTEX_POINT('',#1034);
#1034 = CARTESIAN_POINT('',(-41.1,-25.25,29.));
#1035 = LINE('',#1036,#1037);
#1036 = CARTESIAN_POINT('',(-41.1,-25.25,45.));
#1037 = VECTOR('',#1038,1.);
#1038 = DIRECTION('',(-6.E-17,0.,-1.));
#1039 = ORIENTED_EDGE('',*,*,#502,.T.);
#1040 = ORIENTED_EDGE('',*,*,#1032,.T.);
#1041 = ORIENTED_EDGE('',*,*,#1042,.F.);
#1042 = EDGE_CURVE('',#1033,#1033,#1043,.T.);
#1043 = CIRCLE('',#1044,1.9);
#1044 = AXIS2_PLACEMENT_3D('',#1045,#1046,#1047);
#1045 = CARTESIAN_POINT('',(-43.,-25.25,29.));
#1046 = DIRECTION('',(0.,0.,1.));
#1047 = DIRECTION('',(1.,0.,0.));
#1048 = CYLINDRICAL_SURFACE('',#1049,1.9);
#1049 = AXIS2_PLACEMENT_3D('',#1050,#1051,#1052);
#1050 = CARTESIAN_POINT('',(-43.,-25.25,45.));
#1051 = DIRECTION('',(-0.,-0.,-1.));
#1052 = DIRECTION('',(1.,0.,0.));
#1053 = ADVANCED_FACE('',(#1054),#1073,.F.);
#1054 = FACE_BOUND('',#1055,.T.);
#1055 = EDGE_LOOP('',(#1056,#1064,#1065,#1066));
#1056 = ORIENTED_EDGE('',*,*,#1057,.F.);
#1057 = EDGE_CURVE('',#514,#1058,#1060,.T.);
#1058 = VERTEX_POINT('',#1059);
#1059 = CARTESIAN_POINT('',(44.9,-25.25,29.));
#1060 = LINE('',#1061,#1062);
#1061 = CARTESIAN_POINT('',(44.9,-25.25,45.));
#1062 = VECTOR('',#1063,1.);
#1063 = DIRECTION('',(-6.E-17,0.,-1.));
#1064 = ORIENTED_EDGE('',*,*,#513,.T.);
#1065 = ORIENTED_EDGE('',*,*,#1057,.T.);
#1066 = ORIENTED_EDGE('',*,*,#1067,.F.);
#1067 = EDGE_CURVE('',#1058,#1058,#1068,.T.);
#1068 = CIRCLE('',#1069,1.9);
#1069 = AXIS2_PLACEMENT_3D('',#1070,#1071,#1072);
#1070 = CARTESIAN_POINT('',(43.,-25.25,29.));
#1071 = DIRECTION('',(0.,0.,1.));
#1072 = DIRECTION('',(1.,0.,0.));
#1073 = CYLINDRICAL_SURFACE('',#1074,1.9);
#1074 = AXIS2_PLACEMENT_3D('',#1075,#1076,#1077);
#1075 = CARTESIAN_POINT('',(43.,-25.25,45.));
#1076 = DIRECTION('',(-0.,-0.,-1.));
#1077 = DIRECTION('',(1.,0.,0.));
#1078 = ADVANCED_FACE('',(#1079,#1168,#1179,#1190),#1224,.T.);
#1079 = FACE_BOUND('',#1080,.T.);
#1080 = EDGE_LOOP('',(#1081,#1091,#1099,#1107,#1115,#1123,#1129,#1130,
    #1138,#1146,#1154,#1162));
#1081 = ORIENTED_EDGE('',*,*,#1082,.F.);
#1082 = EDGE_CURVE('',#1083,#1085,#1087,.T.);
#1083 = VERTEX_POINT('',#1084);
#1084 = CARTESIAN_POINT('',(39.5,26.25,5.));
#1085 = VERTEX_POINT('',#1086);
#1086 = CARTESIAN_POINT('',(-39.5,26.25,5.));
#1087 = LINE('',#1088,#1089);
#1088 = CARTESIAN_POINT('',(39.5,26.25,5.));
#1089 = VECTOR('',#1090,1.);
#1090 = DIRECTION('',(-1.,0.,0.));
#1091 = ORIENTED_EDGE('',*,*,#1092,.T.);
#1092 = EDGE_CURVE('',#1083,#1093,#1095,.T.);
#1093 = VERTEX_POINT('',#1094);
#1094 = CARTESIAN_POINT('',(39.5,26.25,30.));
#1095 = LINE('',#1096,#1097);
#1096 = CARTESIAN_POINT('',(39.5,26.25,0.));
#1097 = VECTOR('',#1098,1.);
#1098 = DIRECTION('',(0.,0.,1.));
#1099 = ORIENTED_EDGE('',*,*,#1100,.T.);
#1100 = EDGE_CURVE('',#1093,#1101,#1103,.T.);
#1101 = VERTEX_POINT('',#1102);
#1102 = CARTESIAN_POINT('',(30.5,26.25,30.));
#1103 = LINE('',#1104,#1105);
#1104 = CARTESIAN_POINT('',(39.5,26.25,30.));
#1105 = VECTOR('',#1106,1.);
#1106 = DIRECTION('',(-1.,0.,0.));
#1107 = ORIENTED_EDGE('',*,*,#1108,.F.);
#1108 = EDGE_CURVE('',#1109,#1101,#1111,.T.);
#1109 = VERTEX_POINT('',#1110);
#1110 = CARTESIAN_POINT('',(30.5,26.25,41.));
#1111 = LINE('',#1112,#1113);
#1112 = CARTESIAN_POINT('',(30.5,26.25,45.));
#1113 = VECTOR('',#1114,1.);
#1114 = DIRECTION('',(-0.,-0.,-1.));
#1115 = ORIENTED_EDGE('',*,*,#1116,.F.);
#1116 = EDGE_CURVE('',#1117,#1109,#1119,.T.);
#1117 = VERTEX_POINT('',#1118);
#1118 = CARTESIAN_POINT('',(39.5,26.25,41.));
#1119 = LINE('',#1120,#1121);
#1120 = CARTESIAN_POINT('',(39.5,26.25,41.));
#1121 = VECTOR('',#1122,1.);
#1122 = DIRECTION('',(-1.,0.,0.));
#1123 = ORIENTED_EDGE('',*,*,#1124,.F.);
#1124 = EDGE_CURVE('',#525,#1117,#1125,.T.);
#1125 = LINE('',#1126,#1127);
#1126 = CARTESIAN_POINT('',(39.5,26.25,45.));
#1127 = VECTOR('',#1128,1.);
#1128 = DIRECTION('',(-0.,-0.,-1.));
#1129 = ORIENTED_EDGE('',*,*,#524,.T.);
#1130 = ORIENTED_EDGE('',*,*,#1131,.T.);
#1131 = EDGE_CURVE('',#527,#1132,#1134,.T.);
#1132 = VERTEX_POINT('',#1133);
#1133 = CARTESIAN_POINT('',(-39.5,26.25,41.));
#1134 = LINE('',#1135,#1136);
#1135 = CARTESIAN_POINT('',(-39.5,26.25,45.));
#1136 = VECTOR('',#1137,1.);
#1137 = DIRECTION('',(-0.,-0.,-1.));
#1138 = ORIENTED_EDGE('',*,*,#1139,.F.);
#1139 = EDGE_CURVE('',#1140,#1132,#1142,.T.);
#1140 = VERTEX_POINT('',#1141);
#1141 = CARTESIAN_POINT('',(-30.5,26.25,41.));
#1142 = LINE('',#1143,#1144);
#1143 = CARTESIAN_POINT('',(-30.5,26.25,41.));
#1144 = VECTOR('',#1145,1.);
#1145 = DIRECTION('',(-1.,0.,0.));
#1146 = ORIENTED_EDGE('',*,*,#1147,.T.);
#1147 = EDGE_CURVE('',#1140,#1148,#1150,.T.);
#1148 = VERTEX_POINT('',#1149);
#1149 = CARTESIAN_POINT('',(-30.5,26.25,30.));
#1150 = LINE('',#1151,#1152);
#1151 = CARTESIAN_POINT('',(-30.5,26.25,45.));
#1152 = VECTOR('',#1153,1.);
#1153 = DIRECTION('',(-0.,-0.,-1.));
#1154 = ORIENTED_EDGE('',*,*,#1155,.T.);
#1155 = EDGE_CURVE('',#1148,#1156,#1158,.T.);
#1156 = VERTEX_POINT('',#1157);
#1157 = CARTESIAN_POINT('',(-39.5,26.25,30.));
#1158 = LINE('',#1159,#1160);
#1159 = CARTESIAN_POINT('',(-30.5,26.25,30.));
#1160 = VECTOR('',#1161,1.);
#1161 = DIRECTION('',(-1.,0.,0.));
#1162 = ORIENTED_EDGE('',*,*,#1163,.F.);
#1163 = EDGE_CURVE('',#1085,#1156,#1164,.T.);
#1164 = LINE('',#1165,#1166);
#1165 = CARTESIAN_POINT('',(-39.5,26.25,0.));
#1166 = VECTOR('',#1167,1.);
#1167 = DIRECTION('',(0.,0.,1.));
#1168 = FACE_BOUND('',#1169,.T.);
#1169 = EDGE_LOOP('',(#1170));
#1170 = ORIENTED_EDGE('',*,*,#1171,.T.);
#1171 = EDGE_CURVE('',#1172,#1172,#1174,.T.);
#1172 = VERTEX_POINT('',#1173);
#1173 = CARTESIAN_POINT('',(-36.97,26.25,25.3));
#1174 = CIRCLE('',#1175,1.4);
#1175 = AXIS2_PLACEMENT_3D('',#1176,#1177,#1178);
#1176 = CARTESIAN_POINT('',(-35.57,26.25,25.3));
#1177 = DIRECTION('',(0.,1.,-2.22044604925E-16));
#1178 = DIRECTION('',(-1.,0.,0.));
#1179 = FACE_BOUND('',#1180,.T.);
#1180 = EDGE_LOOP('',(#1181));
#1181 = ORIENTED_EDGE('',*,*,#1182,.T.);
#1182 = EDGE_CURVE('',#1183,#1183,#1185,.T.);
#1183 = VERTEX_POINT('',#1184);
#1184 = CARTESIAN_POINT('',(-36.97,26.25,9.05));
#1185 = CIRCLE('',#1186,1.4);
#1186 = AXIS2_PLACEMENT_3D('',#1187,#1188,#1189);
#1187 = CARTESIAN_POINT('',(-35.57,26.25,9.05));
#1188 = DIRECTION('',(0.,1.,-2.22044604925E-16));
#1189 = DIRECTION('',(-1.,0.,0.));
#1190 = FACE_BOUND('',#1191,.T.);
#1191 = EDGE_LOOP('',(#1192,#1202,#1210,#1218));
#1192 = ORIENTED_EDGE('',*,*,#1193,.T.);
#1193 = EDGE_CURVE('',#1194,#1196,#1198,.T.);
#1194 = VERTEX_POINT('',#1195);
#1195 = CARTESIAN_POINT('',(-31.,26.25,26.35));
#1196 = VERTEX_POINT('',#1197);
#1197 = CARTESIAN_POINT('',(31.75,26.25,26.35));
#1198 = LINE('',#1199,#1200);
#1199 = CARTESIAN_POINT('',(4.25,26.25,26.35));
#1200 = VECTOR('',#1201,1.);
#1201 = DIRECTION('',(1.,0.,0.));
#1202 = ORIENTED_EDGE('',*,*,#1203,.T.);
#1203 = EDGE_CURVE('',#1196,#1204,#1206,.T.);
#1204 = VERTEX_POINT('',#1205);
#1205 = CARTESIAN_POINT('',(31.75,26.25,8.1));
#1206 = LINE('',#1207,#1208);
#1207 = CARTESIAN_POINT('',(31.75,26.25,13.175));
#1208 = VECTOR('',#1209,1.);
#1209 = DIRECTION('',(0.,0.,-1.));
#1210 = ORIENTED_EDGE('',*,*,#1211,.T.);
#1211 = EDGE_CURVE('',#1204,#1212,#1214,.T.);
#1212 = VERTEX_POINT('',#1213);
#1213 = CARTESIAN_POINT('',(-31.,26.25,8.1));
#1214 = LINE('',#1215,#1216);
#1215 = CARTESIAN_POINT('',(35.625,26.25,8.1));
#1216 = VECTOR('',#1217,1.);
#1217 = DIRECTION('',(-1.,0.,0.));
#1218 = ORIENTED_EDGE('',*,*,#1219,.T.);
#1219 = EDGE_CURVE('',#1212,#1194,#1220,.T.);
#1220 = LINE('',#1221,#1222);
#1221 = CARTESIAN_POINT('',(-31.,26.25,4.05));
#1222 = VECTOR('',#1223,1.);
#1223 = DIRECTION('',(0.,0.,1.));
#1224 = PLANE('',#1225);
#1225 = AXIS2_PLACEMENT_3D('',#1226,#1227,#1228);
#1226 = CARTESIAN_POINT('',(2.49E-15,26.25,26.379562043796));
#1227 = DIRECTION('',(-0.,-1.,-0.));
#1228 = DIRECTION('',(0.,0.,-1.));
#1229 = ADVANCED_FACE('',(#1230),#1280,.T.);
#1230 = FACE_BOUND('',#1231,.T.);
#1231 = EDGE_LOOP('',(#1232,#1240,#1248,#1254,#1255,#1256,#1257,#1265,
    #1273,#1279));
#1232 = ORIENTED_EDGE('',*,*,#1233,.F.);
#1233 = EDGE_CURVE('',#1234,#1083,#1236,.T.);
#1234 = VERTEX_POINT('',#1235);
#1235 = CARTESIAN_POINT('',(39.5,-17.25,5.));
#1236 = LINE('',#1237,#1238);
#1237 = CARTESIAN_POINT('',(39.5,-26.25,5.));
#1238 = VECTOR('',#1239,1.);
#1239 = DIRECTION('',(0.,1.,0.));
#1240 = ORIENTED_EDGE('',*,*,#1241,.T.);
#1241 = EDGE_CURVE('',#1234,#1242,#1244,.T.);
#1242 = VERTEX_POINT('',#1243);
#1243 = CARTESIAN_POINT('',(39.5,-17.25,41.));
#1244 = LINE('',#1245,#1246);
#1245 = CARTESIAN_POINT('',(39.5,-17.25,5.));
#1246 = VECTOR('',#1247,1.);
#1247 = DIRECTION('',(0.,0.,1.));
#1248 = ORIENTED_EDGE('',*,*,#1249,.F.);
#1249 = EDGE_CURVE('',#647,#1242,#1250,.T.);
#1250 = LINE('',#1251,#1252);
#1251 = CARTESIAN_POINT('',(39.5,-26.25,41.));
#1252 = VECTOR('',#1253,1.);
#1253 = DIRECTION('',(0.,1.,0.));
#1254 = ORIENTED_EDGE('',*,*,#646,.T.);
#1255 = ORIENTED_EDGE('',*,*,#534,.T.);
#1256 = ORIENTED_EDGE('',*,*,#1124,.T.);
#1257 = ORIENTED_EDGE('',*,*,#1258,.F.);
#1258 = EDGE_CURVE('',#1259,#1117,#1261,.T.);
#1259 = VERTEX_POINT('',#1260);
#1260 = CARTESIAN_POINT('',(39.5,17.25,41.));
#1261 = LINE('',#1262,#1263);
#1262 = CARTESIAN_POINT('',(39.5,17.25,41.));
#1263 = VECTOR('',#1264,1.);
#1264 = DIRECTION('',(0.,1.,0.));
#1265 = ORIENTED_EDGE('',*,*,#1266,.T.);
#1266 = EDGE_CURVE('',#1259,#1267,#1269,.T.);
#1267 = VERTEX_POINT('',#1268);
#1268 = CARTESIAN_POINT('',(39.5,17.25,30.));
#1269 = LINE('',#1270,#1271);
#1270 = CARTESIAN_POINT('',(39.5,17.25,45.));
#1271 = VECTOR('',#1272,1.);
#1272 = DIRECTION('',(-0.,-0.,-1.));
#1273 = ORIENTED_EDGE('',*,*,#1274,.T.);
#1274 = EDGE_CURVE('',#1267,#1093,#1275,.T.);
#1275 = LINE('',#1276,#1277);
#1276 = CARTESIAN_POINT('',(39.5,17.25,30.));
#1277 = VECTOR('',#1278,1.);
#1278 = DIRECTION('',(0.,1.,0.));
#1279 = ORIENTED_EDGE('',*,*,#1092,.F.);
#1280 = PLANE('',#1281);
#1281 = AXIS2_PLACEMENT_3D('',#1282,#1283,#1284);
#1282 = CARTESIAN_POINT('',(39.5,3.036945812808,27.527093596059));
#1283 = DIRECTION('',(-1.,-0.,-0.));
#1284 = DIRECTION('',(0.,0.,-1.));
#1285 = ADVANCED_FACE('',(#1286,#1336,#1342,#1348),#1354,.T.);
#1286 = FACE_BOUND('',#1287,.T.);
#1287 = EDGE_LOOP('',(#1288,#1289,#1290,#1291,#1299,#1307,#1313,#1314,
    #1322,#1330));
#1288 = ORIENTED_EDGE('',*,*,#1131,.F.);
#1289 = ORIENTED_EDGE('',*,*,#550,.T.);
#1290 = ORIENTED_EDGE('',*,*,#639,.F.);
#1291 = ORIENTED_EDGE('',*,*,#1292,.F.);
#1292 = EDGE_CURVE('',#1293,#632,#1295,.T.);
#1293 = VERTEX_POINT('',#1294);
#1294 = CARTESIAN_POINT('',(-39.5,-17.25,41.));
#1295 = LINE('',#1296,#1297);
#1296 = CARTESIAN_POINT('',(-39.5,-17.25,41.));
#1297 = VECTOR('',#1298,1.);
#1298 = DIRECTION('',(0.,-1.,0.));
#1299 = ORIENTED_EDGE('',*,*,#1300,.F.);
#1300 = EDGE_CURVE('',#1301,#1293,#1303,.T.);
#1301 = VERTEX_POINT('',#1302);
#1302 = CARTESIAN_POINT('',(-39.5,-17.25,5.));
#1303 = LINE('',#1304,#1305);
#1304 = CARTESIAN_POINT('',(-39.5,-17.25,5.));
#1305 = VECTOR('',#1306,1.);
#1306 = DIRECTION('',(0.,0.,1.));
#1307 = ORIENTED_EDGE('',*,*,#1308,.F.);
#1308 = EDGE_CURVE('',#1085,#1301,#1309,.T.);
#1309 = LINE('',#1310,#1311);
#1310 = CARTESIAN_POINT('',(-39.5,26.25,5.));
#1311 = VECTOR('',#1312,1.);
#1312 = DIRECTION('',(0.,-1.,0.));
#1313 = ORIENTED_EDGE('',*,*,#1163,.T.);
#1314 = ORIENTED_EDGE('',*,*,#1315,.T.);
#1315 = EDGE_CURVE('',#1156,#1316,#1318,.T.);
#1316 = VERTEX_POINT('',#1317);
#1317 = CARTESIAN_POINT('',(-39.5,17.25,30.));
#1318 = LINE('',#1319,#1320);
#1319 = CARTESIAN_POINT('',(-39.5,26.25,30.));
#1320 = VECTOR('',#1321,1.);
#1321 = DIRECTION('',(0.,-1.,0.));
#1322 = ORIENTED_EDGE('',*,*,#1323,.F.);
#1323 = EDGE_CURVE('',#1324,#1316,#1326,.T.);
#1324 = VERTEX_POINT('',#1325);
#1325 = CARTESIAN_POINT('',(-39.5,17.25,41.));
#1326 = LINE('',#1327,#1328);
#1327 = CARTESIAN_POINT('',(-39.5,17.25,45.));
#1328 = VECTOR('',#1329,1.);
#1329 = DIRECTION('',(-0.,-0.,-1.));
#1330 = ORIENTED_EDGE('',*,*,#1331,.F.);
#1331 = EDGE_CURVE('',#1132,#1324,#1332,.T.);
#1332 = LINE('',#1333,#1334);
#1333 = CARTESIAN_POINT('',(-39.5,26.25,41.));
#1334 = VECTOR('',#1335,1.);
#1335 = DIRECTION('',(0.,-1.,0.));
#1336 = FACE_BOUND('',#1337,.T.);
#1337 = EDGE_LOOP('',(#1338,#1339,#1340,#1341));
#1338 = ORIENTED_EDGE('',*,*,#753,.T.);
#1339 = ORIENTED_EDGE('',*,*,#825,.T.);
#1340 = ORIENTED_EDGE('',*,*,#808,.T.);
#1341 = ORIENTED_EDGE('',*,*,#784,.T.);
#1342 = FACE_BOUND('',#1343,.T.);
#1343 = EDGE_LOOP('',(#1344,#1345,#1346,#1347));
#1344 = ORIENTED_EDGE('',*,*,#849,.T.);
#1345 = ORIENTED_EDGE('',*,*,#921,.T.);
#1346 = ORIENTED_EDGE('',*,*,#904,.T.);
#1347 = ORIENTED_EDGE('',*,*,#880,.T.);
#1348 = FACE_BOUND('',#1349,.T.);
#1349 = EDGE_LOOP('',(#1350,#1351,#1352,#1353));
#1350 = ORIENTED_EDGE('',*,*,#945,.T.);
#1351 = ORIENTED_EDGE('',*,*,#1017,.T.);
#1352 = ORIENTED_EDGE('',*,*,#1000,.T.);
#1353 = ORIENTED_EDGE('',*,*,#976,.T.);
#1354 = PLANE('',#1355);
#1355 = AXIS2_PLACEMENT_3D('',#1356,#1357,#1358);
#1356 = CARTESIAN_POINT('',(-39.5,3.036945812808,27.527093596059));
#1357 = DIRECTION('',(1.,0.,0.));
#1358 = DIRECTION('',(0.,0.,1.));
#1359 = ADVANCED_FACE('',(#1360),#1379,.F.);
#1360 = FACE_BOUND('',#1361,.T.);
#1361 = EDGE_LOOP('',(#1362,#1370,#1371,#1372));
#1362 = ORIENTED_EDGE('',*,*,#1363,.F.);
#1363 = EDGE_CURVE('',#559,#1364,#1366,.T.);
#1364 = VERTEX_POINT('',#1365);
#1365 = CARTESIAN_POINT('',(-41.1,25.25,29.));
#1366 = LINE('',#1367,#1368);
#1367 = CARTESIAN_POINT('',(-41.1,25.25,45.));
#1368 = VECTOR('',#1369,1.);
#1369 = DIRECTION('',(-6.E-17,0.,-1.));
#1370 = ORIENTED_EDGE('',*,*,#558,.T.);
#1371 = ORIENTED_EDGE('',*,*,#1363,.T.);
#1372 = ORIENTED_EDGE('',*,*,#1373,.F.);
#1373 = EDGE_CURVE('',#1364,#1364,#1374,.T.);
#1374 = CIRCLE('',#1375,1.9);
#1375 = AXIS2_PLACEMENT_3D('',#1376,#1377,#1378);
#1376 = CARTESIAN_POINT('',(-43.,25.25,29.));
#1377 = DIRECTION('',(0.,0.,1.));
#1378 = DIRECTION('',(1.,0.,0.));
#1379 = CYLINDRICAL_SURFACE('',#1380,1.9);
#1380 = AXIS2_PLACEMENT_3D('',#1381,#1382,#1383);
#1381 = CARTESIAN_POINT('',(-43.,25.25,45.));
#1382 = DIRECTION('',(-0.,-0.,-1.));
#1383 = DIRECTION('',(1.,0.,0.));
#1384 = ADVANCED_FACE('',(#1385),#1404,.F.);
#1385 = FACE_BOUND('',#1386,.T.);
#1386 = EDGE_LOOP('',(#1387,#1395,#1396,#1397));
#1387 = ORIENTED_EDGE('',*,*,#1388,.F.);
#1388 = EDGE_CURVE('',#570,#1389,#1391,.T.);
#1389 = VERTEX_POINT('',#1390);
#1390 = CARTESIAN_POINT('',(44.9,25.25,29.));
#1391 = LINE('',#1392,#1393);
#1392 = CARTESIAN_POINT('',(44.9,25.25,45.));
#1393 = VECTOR('',#1394,1.);
#1394 = DIRECTION('',(-6.E-17,0.,-1.));
#1395 = ORIENTED_EDGE('',*,*,#569,.T.);
#1396 = ORIENTED_EDGE('',*,*,#1388,.T.);
#1397 = ORIENTED_EDGE('',*,*,#1398,.F.);
#1398 = EDGE_CURVE('',#1389,#1389,#1399,.T.);
#1399 = CIRCLE('',#1400,1.9);
#1400 = AXIS2_PLACEMENT_3D('',#1401,#1402,#1403);
#1401 = CARTESIAN_POINT('',(43.,25.25,29.));
#1402 = DIRECTION('',(0.,0.,1.));
#1403 = DIRECTION('',(1.,0.,0.));
#1404 = CYLINDRICAL_SURFACE('',#1405,1.9);
#1405 = AXIS2_PLACEMENT_3D('',#1406,#1407,#1408);
#1406 = CARTESIAN_POINT('',(43.,25.25,45.));
#1407 = DIRECTION('',(-0.,-0.,-1.));
#1408 = DIRECTION('',(1.,0.,0.));
#1409 = ADVANCED_FACE('',(#1410),#1430,.T.);
#1410 = FACE_BOUND('',#1411,.T.);
#1411 = EDGE_LOOP('',(#1412,#1413,#1414,#1415,#1422,#1423));
#1412 = ORIENTED_EDGE('',*,*,#1233,.T.);
#1413 = ORIENTED_EDGE('',*,*,#1082,.T.);
#1414 = ORIENTED_EDGE('',*,*,#1308,.T.);
#1415 = ORIENTED_EDGE('',*,*,#1416,.F.);
#1416 = EDGE_CURVE('',#614,#1301,#1417,.T.);
#1417 = CIRCLE('',#1418,9.);
#1418 = AXIS2_PLACEMENT_3D('',#1419,#1420,#1421);
#1419 = CARTESIAN_POINT('',(-39.5,-26.25,5.));
#1420 = DIRECTION('',(0.,0.,1.));
#1421 = DIRECTION('',(1.,0.,0.));
#1422 = ORIENTED_EDGE('',*,*,#613,.T.);
#1423 = ORIENTED_EDGE('',*,*,#1424,.F.);
#1424 = EDGE_CURVE('',#1234,#616,#1425,.T.);
#1425 = CIRCLE('',#1426,9.);
#1426 = AXIS2_PLACEMENT_3D('',#1427,#1428,#1429);
#1427 = CARTESIAN_POINT('',(39.5,-26.25,5.));
#1428 = DIRECTION('',(0.,0.,1.));
#1429 = DIRECTION('',(1.,0.,0.));
#1430 = PLANE('',#1431);
#1431 = AXIS2_PLACEMENT_3D('',#1432,#1433,#1434);
#1432 = CARTESIAN_POINT('',(8.1E-16,8.1E-16,5.));
#1433 = DIRECTION('',(0.,0.,1.));
#1434 = DIRECTION('',(1.,0.,0.));
#1435 = ADVANCED_FACE('',(#1436),#1448,.T.);
#1436 = FACE_BOUND('',#1437,.F.);
#1437 = EDGE_LOOP('',(#1438,#1439,#1446,#1447));
#1438 = ORIENTED_EDGE('',*,*,#623,.T.);
#1439 = ORIENTED_EDGE('',*,*,#1440,.T.);
#1440 = EDGE_CURVE('',#624,#1293,#1441,.T.);
#1441 = CIRCLE('',#1442,9.);
#1442 = AXIS2_PLACEMENT_3D('',#1443,#1444,#1445);
#1443 = CARTESIAN_POINT('',(-39.5,-26.25,41.));
#1444 = DIRECTION('',(0.,0.,1.));
#1445 = DIRECTION('',(1.,0.,0.));
#1446 = ORIENTED_EDGE('',*,*,#1300,.F.);
#1447 = ORIENTED_EDGE('',*,*,#1416,.F.);
#1448 = CYLINDRICAL_SURFACE('',#1449,9.);
#1449 = AXIS2_PLACEMENT_3D('',#1450,#1451,#1452);
#1450 = CARTESIAN_POINT('',(-39.5,-26.25,5.));
#1451 = DIRECTION('',(-0.,-0.,-1.));
#1452 = DIRECTION('',(1.,0.,0.));
#1453 = ADVANCED_FACE('',(#1454),#1466,.T.);
#1454 = FACE_BOUND('',#1455,.F.);
#1455 = EDGE_LOOP('',(#1456,#1457,#1464,#1465));
#1456 = ORIENTED_EDGE('',*,*,#1241,.T.);
#1457 = ORIENTED_EDGE('',*,*,#1458,.T.);
#1458 = EDGE_CURVE('',#1242,#655,#1459,.T.);
#1459 = CIRCLE('',#1460,9.);
#1460 = AXIS2_PLACEMENT_3D('',#1461,#1462,#1463);
#1461 = CARTESIAN_POINT('',(39.5,-26.25,41.));
#1462 = DIRECTION('',(0.,0.,1.));
#1463 = DIRECTION('',(1.,0.,0.));
#1464 = ORIENTED_EDGE('',*,*,#662,.F.);
#1465 = ORIENTED_EDGE('',*,*,#1424,.F.);
#1466 = CYLINDRICAL_SURFACE('',#1467,9.);
#1467 = AXIS2_PLACEMENT_3D('',#1468,#1469,#1470);
#1468 = CARTESIAN_POINT('',(39.5,-26.25,5.));
#1469 = DIRECTION('',(-0.,-0.,-1.));
#1470 = DIRECTION('',(1.,0.,0.));
#1471 = ADVANCED_FACE('',(#1472,#1477),#1488,.T.);
#1472 = FACE_BOUND('',#1473,.T.);
#1473 = EDGE_LOOP('',(#1474,#1475,#1476));
#1474 = ORIENTED_EDGE('',*,*,#1292,.T.);
#1475 = ORIENTED_EDGE('',*,*,#631,.T.);
#1476 = ORIENTED_EDGE('',*,*,#1440,.T.);
#1477 = FACE_BOUND('',#1478,.T.);
#1478 = EDGE_LOOP('',(#1479));
#1479 = ORIENTED_EDGE('',*,*,#1480,.F.);
#1480 = EDGE_CURVE('',#1481,#1481,#1483,.T.);
#1481 = VERTEX_POINT('',#1482);
#1482 = CARTESIAN_POINT('',(-33.18,-21.47,41.));
#1483 = CIRCLE('',#1484,1.9);
#1484 = AXIS2_PLACEMENT_3D('',#1485,#1486,#1487);
#1485 = CARTESIAN_POINT('',(-35.08,-21.47,41.));
#1486 = DIRECTION('',(0.,0.,1.));
#1487 = DIRECTION('',(1.,0.,0.));
#1488 = PLANE('',#1489);
#1489 = AXIS2_PLACEMENT_3D('',#1490,#1491,#1492);
#1490 = CARTESIAN_POINT('',(-2.555E-14,-21.27005084025,41.));
#1491 = DIRECTION('',(0.,0.,1.));
#1492 = DIRECTION('',(1.,0.,0.));
#1493 = ADVANCED_FACE('',(#1494,#1499),#1510,.T.);
#1494 = FACE_BOUND('',#1495,.T.);
#1495 = EDGE_LOOP('',(#1496,#1497,#1498));
#1496 = ORIENTED_EDGE('',*,*,#654,.T.);
#1497 = ORIENTED_EDGE('',*,*,#1249,.T.);
#1498 = ORIENTED_EDGE('',*,*,#1458,.T.);
#1499 = FACE_BOUND('',#1500,.T.);
#1500 = EDGE_LOOP('',(#1501));
#1501 = ORIENTED_EDGE('',*,*,#1502,.F.);
#1502 = EDGE_CURVE('',#1503,#1503,#1505,.T.);
#1503 = VERTEX_POINT('',#1504);
#1504 = CARTESIAN_POINT('',(37.22,-21.5,41.));
#1505 = CIRCLE('',#1506,1.9);
#1506 = AXIS2_PLACEMENT_3D('',#1507,#1508,#1509);
#1507 = CARTESIAN_POINT('',(35.32,-21.5,41.));
#1508 = DIRECTION('',(0.,0.,1.));
#1509 = DIRECTION('',(1.,0.,0.));
#1510 = PLANE('',#1511);
#1511 = AXIS2_PLACEMENT_3D('',#1512,#1513,#1514);
#1512 = CARTESIAN_POINT('',(-2.555E-14,-21.27005084025,41.));
#1513 = DIRECTION('',(0.,0.,1.));
#1514 = DIRECTION('',(1.,0.,0.));
#1515 = ADVANCED_FACE('',(#1516),#1532,.F.);
#1516 = FACE_BOUND('',#1517,.F.);
#1517 = EDGE_LOOP('',(#1518,#1519,#1525,#1526));
#1518 = ORIENTED_EDGE('',*,*,#682,.F.);
#1519 = ORIENTED_EDGE('',*,*,#1520,.T.);
#1520 = EDGE_CURVE('',#683,#1194,#1521,.T.);
#1521 = LINE('',#1522,#1523);
#1522 = CARTESIAN_POINT('',(-31.,28.25,26.35));
#1523 = VECTOR('',#1524,1.);
#1524 = DIRECTION('',(0.,-1.,2.2E-16));
#1525 = ORIENTED_EDGE('',*,*,#1193,.T.);
#1526 = ORIENTED_EDGE('',*,*,#1527,.F.);
#1527 = EDGE_CURVE('',#685,#1196,#1528,.T.);
#1528 = LINE('',#1529,#1530);
#1529 = CARTESIAN_POINT('',(31.75,28.25,26.35));
#1530 = VECTOR('',#1531,1.);
#1531 = DIRECTION('',(0.,-1.,2.2E-16));
#1532 = PLANE('',#1533);
#1533 = AXIS2_PLACEMENT_3D('',#1534,#1535,#1536);
#1534 = CARTESIAN_POINT('',(-31.,28.25,26.35));
#1535 = DIRECTION('',(0.,2.2E-16,1.));
#1536 = DIRECTION('',(1.,0.,0.));
#1537 = ADVANCED_FACE('',(#1538),#1549,.F.);
#1538 = FACE_BOUND('',#1539,.F.);
#1539 = EDGE_LOOP('',(#1540,#1541,#1547,#1548));
#1540 = ORIENTED_EDGE('',*,*,#708,.F.);
#1541 = ORIENTED_EDGE('',*,*,#1542,.T.);
#1542 = EDGE_CURVE('',#701,#1212,#1543,.T.);
#1543 = LINE('',#1544,#1545);
#1544 = CARTESIAN_POINT('',(-31.,28.25,8.1));
#1545 = VECTOR('',#1546,1.);
#1546 = DIRECTION('',(0.,-1.,2.2E-16));
#1547 = ORIENTED_EDGE('',*,*,#1219,.T.);
#1548 = ORIENTED_EDGE('',*,*,#1520,.F.);
#1549 = PLANE('',#1550);
#1550 = AXIS2_PLACEMENT_3D('',#1551,#1552,#1553);
#1551 = CARTESIAN_POINT('',(-31.,28.25,8.1));
#1552 = DIRECTION('',(-1.,0.,0.));
#1553 = DIRECTION('',(0.,2.2E-16,1.));
#1554 = ADVANCED_FACE('',(#1555),#1566,.F.);
#1555 = FACE_BOUND('',#1556,.F.);
#1556 = EDGE_LOOP('',(#1557,#1558,#1559,#1560));
#1557 = ORIENTED_EDGE('',*,*,#692,.F.);
#1558 = ORIENTED_EDGE('',*,*,#1527,.T.);
#1559 = ORIENTED_EDGE('',*,*,#1203,.T.);
#1560 = ORIENTED_EDGE('',*,*,#1561,.F.);
#1561 = EDGE_CURVE('',#693,#1204,#1562,.T.);
#1562 = LINE('',#1563,#1564);
#1563 = CARTESIAN_POINT('',(31.75,28.25,8.1));
#1564 = VECTOR('',#1565,1.);
#1565 = DIRECTION('',(0.,-1.,2.2E-16));
#1566 = PLANE('',#1567);
#1567 = AXIS2_PLACEMENT_3D('',#1568,#1569,#1570);
#1568 = CARTESIAN_POINT('',(31.75,28.25,26.35));
#1569 = DIRECTION('',(1.,0.,0.));
#1570 = DIRECTION('',(0.,-2.2E-16,-1.));
#1571 = ADVANCED_FACE('',(#1572),#1578,.F.);
#1572 = FACE_BOUND('',#1573,.F.);
#1573 = EDGE_LOOP('',(#1574,#1575,#1576,#1577));
#1574 = ORIENTED_EDGE('',*,*,#700,.F.);
#1575 = ORIENTED_EDGE('',*,*,#1561,.T.);
#1576 = ORIENTED_EDGE('',*,*,#1211,.T.);
#1577 = ORIENTED_EDGE('',*,*,#1542,.F.);
#1578 = PLANE('',#1579);
#1579 = AXIS2_PLACEMENT_3D('',#1580,#1581,#1582);
#1580 = CARTESIAN_POINT('',(31.75,28.25,8.1));
#1581 = DIRECTION('',(-0.,-2.2E-16,-1.));
#1582 = DIRECTION('',(-1.,0.,0.));
#1583 = ADVANCED_FACE('',(#1584),#1595,.F.);
#1584 = FACE_BOUND('',#1585,.F.);
#1585 = EDGE_LOOP('',(#1586,#1587,#1593,#1594));
#1586 = ORIENTED_EDGE('',*,*,#716,.F.);
#1587 = ORIENTED_EDGE('',*,*,#1588,.T.);
#1588 = EDGE_CURVE('',#717,#1172,#1589,.T.);
#1589 = LINE('',#1590,#1591);
#1590 = CARTESIAN_POINT('',(-36.97,28.25,25.3));
#1591 = VECTOR('',#1592,1.);
#1592 = DIRECTION('',(0.,-1.,2.22044604925E-16));
#1593 = ORIENTED_EDGE('',*,*,#1171,.T.);
#1594 = ORIENTED_EDGE('',*,*,#1588,.F.);
#1595 = CYLINDRICAL_SURFACE('',#1596,1.4);
#1596 = AXIS2_PLACEMENT_3D('',#1597,#1598,#1599);
#1597 = CARTESIAN_POINT('',(-35.57,28.25,25.3));
#1598 = DIRECTION('',(0.,1.,-2.22044604925E-16));
#1599 = DIRECTION('',(-1.,0.,0.));
#1600 = ADVANCED_FACE('',(#1601),#1612,.F.);
#1601 = FACE_BOUND('',#1602,.F.);
#1602 = EDGE_LOOP('',(#1603,#1604,#1610,#1611));
#1603 = ORIENTED_EDGE('',*,*,#727,.F.);
#1604 = ORIENTED_EDGE('',*,*,#1605,.T.);
#1605 = EDGE_CURVE('',#728,#1183,#1606,.T.);
#1606 = LINE('',#1607,#1608);
#1607 = CARTESIAN_POINT('',(-36.97,28.25,9.05));
#1608 = VECTOR('',#1609,1.);
#1609 = DIRECTION('',(0.,-1.,2.22044604925E-16));
#1610 = ORIENTED_EDGE('',*,*,#1182,.T.);
#1611 = ORIENTED_EDGE('',*,*,#1605,.F.);
#1612 = CYLINDRICAL_SURFACE('',#1613,1.4);
#1613 = AXIS2_PLACEMENT_3D('',#1614,#1615,#1616);
#1614 = CARTESIAN_POINT('',(-35.57,28.25,9.05));
#1615 = DIRECTION('',(0.,1.,-2.22044604925E-16));
#1616 = DIRECTION('',(-1.,0.,0.));
#1617 = ADVANCED_FACE('',(#1618),#1630,.F.);
#1618 = FACE_BOUND('',#1619,.T.);
#1619 = EDGE_LOOP('',(#1620,#1621,#1629));
#1620 = ORIENTED_EDGE('',*,*,#1042,.T.);
#1621 = ORIENTED_EDGE('',*,*,#1622,.T.);
#1622 = EDGE_CURVE('',#1033,#1623,#1625,.T.);
#1623 = VERTEX_POINT('',#1624);
#1624 = CARTESIAN_POINT('',(-43.,-25.25,27.858364823848));
#1625 = LINE('',#1626,#1627);
#1626 = CARTESIAN_POINT('',(-41.1,-25.25,29.));
#1627 = VECTOR('',#1628,1.);
#1628 = DIRECTION('',(-0.857167300702,-0.,-0.51503807491));
#1629 = ORIENTED_EDGE('',*,*,#1622,.F.);
#1630 = CONICAL_SURFACE('',#1631,1.9,1.029744258677);
#1631 = AXIS2_PLACEMENT_3D('',#1632,#1633,#1634);
#1632 = CARTESIAN_POINT('',(-43.,-25.25,29.));
#1633 = DIRECTION('',(0.,0.,1.));
#1634 = DIRECTION('',(1.,0.,0.));
#1635 = ADVANCED_FACE('',(#1636),#1648,.F.);
#1636 = FACE_BOUND('',#1637,.T.);
#1637 = EDGE_LOOP('',(#1638,#1639,#1647));
#1638 = ORIENTED_EDGE('',*,*,#1067,.T.);
#1639 = ORIENTED_EDGE('',*,*,#1640,.T.);
#1640 = EDGE_CURVE('',#1058,#1641,#1643,.T.);
#1641 = VERTEX_POINT('',#1642);
#1642 = CARTESIAN_POINT('',(43.,-25.25,27.858364823848));
#1643 = LINE('',#1644,#1645);
#1644 = CARTESIAN_POINT('',(44.9,-25.25,29.));
#1645 = VECTOR('',#1646,1.);
#1646 = DIRECTION('',(-0.857167300702,-0.,-0.51503807491));
#1647 = ORIENTED_EDGE('',*,*,#1640,.F.);
#1648 = CONICAL_SURFACE('',#1649,1.9,1.029744258677);
#1649 = AXIS2_PLACEMENT_3D('',#1650,#1651,#1652);
#1650 = CARTESIAN_POINT('',(43.,-25.25,29.));
#1651 = DIRECTION('',(0.,0.,1.));
#1652 = DIRECTION('',(1.,0.,0.));
#1653 = ADVANCED_FACE('',(#1654),#1665,.F.);
#1654 = FACE_BOUND('',#1655,.F.);
#1655 = EDGE_LOOP('',(#1656,#1657,#1658));
#1656 = ORIENTED_EDGE('',*,*,#1274,.T.);
#1657 = ORIENTED_EDGE('',*,*,#1100,.T.);
#1658 = ORIENTED_EDGE('',*,*,#1659,.T.);
#1659 = EDGE_CURVE('',#1101,#1267,#1660,.T.);
#1660 = CIRCLE('',#1661,9.);
#1661 = AXIS2_PLACEMENT_3D('',#1662,#1663,#1664);
#1662 = CARTESIAN_POINT('',(39.5,26.25,30.));
#1663 = DIRECTION('',(0.,0.,1.));
#1664 = DIRECTION('',(1.,0.,0.));
#1665 = PLANE('',#1666);
#1666 = AXIS2_PLACEMENT_3D('',#1667,#1668,#1669);
#1667 = CARTESIAN_POINT('',(4.E-15,21.270050840253,30.));
#1668 = DIRECTION('',(0.,0.,1.));
#1669 = DIRECTION('',(1.,0.,0.));
#1670 = ADVANCED_FACE('',(#1671),#1682,.F.);
#1671 = FACE_BOUND('',#1672,.F.);
#1672 = EDGE_LOOP('',(#1673,#1674,#1675));
#1673 = ORIENTED_EDGE('',*,*,#1155,.T.);
#1674 = ORIENTED_EDGE('',*,*,#1315,.T.);
#1675 = ORIENTED_EDGE('',*,*,#1676,.T.);
#1676 = EDGE_CURVE('',#1316,#1148,#1677,.T.);
#1677 = CIRCLE('',#1678,9.);
#1678 = AXIS2_PLACEMENT_3D('',#1679,#1680,#1681);
#1679 = CARTESIAN_POINT('',(-39.5,26.25,30.));
#1680 = DIRECTION('',(0.,0.,1.));
#1681 = DIRECTION('',(1.,0.,0.));
#1682 = PLANE('',#1683);
#1683 = AXIS2_PLACEMENT_3D('',#1684,#1685,#1686);
#1684 = CARTESIAN_POINT('',(4.E-15,21.270050840253,30.));
#1685 = DIRECTION('',(0.,0.,1.));
#1686 = DIRECTION('',(1.,0.,0.));
#1687 = ADVANCED_FACE('',(#1688),#1700,.T.);
#1688 = FACE_BOUND('',#1689,.T.);
#1689 = EDGE_LOOP('',(#1690,#1697,#1698,#1699));
#1690 = ORIENTED_EDGE('',*,*,#1691,.F.);
#1691 = EDGE_CURVE('',#1109,#1259,#1692,.T.);
#1692 = CIRCLE('',#1693,9.);
#1693 = AXIS2_PLACEMENT_3D('',#1694,#1695,#1696);
#1694 = CARTESIAN_POINT('',(39.5,26.25,41.));
#1695 = DIRECTION('',(0.,0.,1.));
#1696 = DIRECTION('',(1.,0.,0.));
#1697 = ORIENTED_EDGE('',*,*,#1108,.T.);
#1698 = ORIENTED_EDGE('',*,*,#1659,.T.);
#1699 = ORIENTED_EDGE('',*,*,#1266,.F.);
#1700 = CYLINDRICAL_SURFACE('',#1701,9.);
#1701 = AXIS2_PLACEMENT_3D('',#1702,#1703,#1704);
#1702 = CARTESIAN_POINT('',(39.5,26.25,45.));
#1703 = DIRECTION('',(0.,0.,1.));
#1704 = DIRECTION('',(1.,0.,0.));
#1705 = ADVANCED_FACE('',(#1706),#1718,.T.);
#1706 = FACE_BOUND('',#1707,.T.);
#1707 = EDGE_LOOP('',(#1708,#1715,#1716,#1717));
#1708 = ORIENTED_EDGE('',*,*,#1709,.F.);
#1709 = EDGE_CURVE('',#1324,#1140,#1710,.T.);
#1710 = CIRCLE('',#1711,9.);
#1711 = AXIS2_PLACEMENT_3D('',#1712,#1713,#1714);
#1712 = CARTESIAN_POINT('',(-39.5,26.25,41.));
#1713 = DIRECTION('',(0.,0.,1.));
#1714 = DIRECTION('',(1.,0.,0.));
#1715 = ORIENTED_EDGE('',*,*,#1323,.T.);
#1716 = ORIENTED_EDGE('',*,*,#1676,.T.);
#1717 = ORIENTED_EDGE('',*,*,#1147,.F.);
#1718 = CYLINDRICAL_SURFACE('',#1719,9.);
#1719 = AXIS2_PLACEMENT_3D('',#1720,#1721,#1722);
#1720 = CARTESIAN_POINT('',(-39.5,26.25,45.));
#1721 = DIRECTION('',(0.,0.,1.));
#1722 = DIRECTION('',(1.,0.,0.));
#1723 = ADVANCED_FACE('',(#1724,#1729),#1740,.T.);
#1724 = FACE_BOUND('',#1725,.T.);
#1725 = EDGE_LOOP('',(#1726,#1727,#1728));
#1726 = ORIENTED_EDGE('',*,*,#1258,.T.);
#1727 = ORIENTED_EDGE('',*,*,#1116,.T.);
#1728 = ORIENTED_EDGE('',*,*,#1691,.T.);
#1729 = FACE_BOUND('',#1730,.T.);
#1730 = EDGE_LOOP('',(#1731));
#1731 = ORIENTED_EDGE('',*,*,#1732,.F.);
#1732 = EDGE_CURVE('',#1733,#1733,#1735,.T.);
#1733 = VERTEX_POINT('',#1734);
#1734 = CARTESIAN_POINT('',(37.2,21.83,41.));
#1735 = CIRCLE('',#1736,1.9);
#1736 = AXIS2_PLACEMENT_3D('',#1737,#1738,#1739);
#1737 = CARTESIAN_POINT('',(35.3,21.83,41.));
#1738 = DIRECTION('',(0.,0.,1.));
#1739 = DIRECTION('',(1.,0.,0.));
#1740 = PLANE('',#1741);
#1741 = AXIS2_PLACEMENT_3D('',#1742,#1743,#1744);
#1742 = CARTESIAN_POINT('',(2.455E-14,21.270050840253,41.));
#1743 = DIRECTION('',(0.,0.,1.));
#1744 = DIRECTION('',(1.,0.,0.));
#1745 = ADVANCED_FACE('',(#1746,#1751),#1762,.T.);
#1746 = FACE_BOUND('',#1747,.T.);
#1747 = EDGE_LOOP('',(#1748,#1749,#1750));
#1748 = ORIENTED_EDGE('',*,*,#1139,.T.);
#1749 = ORIENTED_EDGE('',*,*,#1331,.T.);
#1750 = ORIENTED_EDGE('',*,*,#1709,.T.);
#1751 = FACE_BOUND('',#1752,.T.);
#1752 = EDGE_LOOP('',(#1753));
#1753 = ORIENTED_EDGE('',*,*,#1754,.F.);
#1754 = EDGE_CURVE('',#1755,#1755,#1757,.T.);
#1755 = VERTEX_POINT('',#1756);
#1756 = CARTESIAN_POINT('',(-33.18,21.83,41.));
#1757 = CIRCLE('',#1758,1.9);
#1758 = AXIS2_PLACEMENT_3D('',#1759,#1760,#1761);
#1759 = CARTESIAN_POINT('',(-35.08,21.83,41.));
#1760 = DIRECTION('',(0.,0.,1.));
#1761 = DIRECTION('',(1.,0.,0.));
#1762 = PLANE('',#1763);
#1763 = AXIS2_PLACEMENT_3D('',#1764,#1765,#1766);
#1764 = CARTESIAN_POINT('',(2.455E-14,21.270050840253,41.));
#1765 = DIRECTION('',(0.,0.,1.));
#1766 = DIRECTION('',(1.,0.,0.));
#1767 = ADVANCED_FACE('',(#1768),#1780,.F.);
#1768 = FACE_BOUND('',#1769,.T.);
#1769 = EDGE_LOOP('',(#1770,#1771,#1779));
#1770 = ORIENTED_EDGE('',*,*,#1373,.T.);
#1771 = ORIENTED_EDGE('',*,*,#1772,.T.);
#1772 = EDGE_CURVE('',#1364,#1773,#1775,.T.);
#1773 = VERTEX_POINT('',#1774);
#1774 = CARTESIAN_POINT('',(-43.,25.25,27.858364823848));
#1775 = LINE('',#1776,#1777);
#1776 = CARTESIAN_POINT('',(-41.1,25.25,29.));
#1777 = VECTOR('',#1778,1.);
#1778 = DIRECTION('',(-0.857167300702,-0.,-0.51503807491));
#1779 = ORIENTED_EDGE('',*,*,#1772,.F.);
#1780 = CONICAL_SURFACE('',#1781,1.9,1.029744258677);
#1781 = AXIS2_PLACEMENT_3D('',#1782,#1783,#1784);
#1782 = CARTESIAN_POINT('',(-43.,25.25,29.));
#1783 = DIRECTION('',(0.,0.,1.));
#1784 = DIRECTION('',(1.,0.,0.));
#1785 = ADVANCED_FACE('',(#1786),#1798,.F.);
#1786 = FACE_BOUND('',#1787,.T.);
#1787 = EDGE_LOOP('',(#1788,#1789,#1797));
#1788 = ORIENTED_EDGE('',*,*,#1398,.T.);
#1789 = ORIENTED_EDGE('',*,*,#1790,.T.);
#1790 = EDGE_CURVE('',#1389,#1791,#1793,.T.);
#1791 = VERTEX_POINT('',#1792);
#1792 = CARTESIAN_POINT('',(43.,25.25,27.858364823848));
#1793 = LINE('',#1794,#1795);
#1794 = CARTESIAN_POINT('',(44.9,25.25,29.));
#1795 = VECTOR('',#1796,1.);
#1796 = DIRECTION('',(-0.857167300702,-0.,-0.51503807491));
#1797 = ORIENTED_EDGE('',*,*,#1790,.F.);
#1798 = CONICAL_SURFACE('',#1799,1.9,1.029744258677);
#1799 = AXIS2_PLACEMENT_3D('',#1800,#1801,#1802);
#1800 = CARTESIAN_POINT('',(43.,25.25,29.));
#1801 = DIRECTION('',(0.,0.,1.));
#1802 = DIRECTION('',(1.,0.,0.));
#1803 = ADVANCED_FACE('',(#1804),#1823,.F.);
#1804 = FACE_BOUND('',#1805,.T.);
#1805 = EDGE_LOOP('',(#1806,#1814,#1815,#1816));
#1806 = ORIENTED_EDGE('',*,*,#1807,.F.);
#1807 = EDGE_CURVE('',#1481,#1808,#1810,.T.);
#1808 = VERTEX_POINT('',#1809);
#1809 = CARTESIAN_POINT('',(-33.18,-21.47,32.5));
#1810 = LINE('',#1811,#1812);
#1811 = CARTESIAN_POINT('',(-33.18,-21.47,41.));
#1812 = VECTOR('',#1813,1.);
#1813 = DIRECTION('',(-5.E-17,0.,-1.));
#1814 = ORIENTED_EDGE('',*,*,#1480,.T.);
#1815 = ORIENTED_EDGE('',*,*,#1807,.T.);
#1816 = ORIENTED_EDGE('',*,*,#1817,.F.);
#1817 = EDGE_CURVE('',#1808,#1808,#1818,.T.);
#1818 = CIRCLE('',#1819,1.9);
#1819 = AXIS2_PLACEMENT_3D('',#1820,#1821,#1822);
#1820 = CARTESIAN_POINT('',(-35.08,-21.47,32.5));
#1821 = DIRECTION('',(0.,0.,1.));
#1822 = DIRECTION('',(1.,0.,0.));
#1823 = CYLINDRICAL_SURFACE('',#1824,1.9);
#1824 = AXIS2_PLACEMENT_3D('',#1825,#1826,#1827);
#1825 = CARTESIAN_POINT('',(-35.08,-21.47,41.));
#1826 = DIRECTION('',(-0.,-0.,-1.));
#1827 = DIRECTION('',(1.,0.,0.));
#1828 = ADVANCED_FACE('',(#1829),#1848,.F.);
#1829 = FACE_BOUND('',#1830,.T.);
#1830 = EDGE_LOOP('',(#1831,#1839,#1840,#1841));
#1831 = ORIENTED_EDGE('',*,*,#1832,.F.);
#1832 = EDGE_CURVE('',#1503,#1833,#1835,.T.);
#1833 = VERTEX_POINT('',#1834);
#1834 = CARTESIAN_POINT('',(37.22,-21.5,32.5));
#1835 = LINE('',#1836,#1837);
#1836 = CARTESIAN_POINT('',(37.22,-21.5,41.));
#1837 = VECTOR('',#1838,1.);
#1838 = DIRECTION('',(-5.E-17,0.,-1.));
#1839 = ORIENTED_EDGE('',*,*,#1502,.T.);
#1840 = ORIENTED_EDGE('',*,*,#1832,.T.);
#1841 = ORIENTED_EDGE('',*,*,#1842,.F.);
#1842 = EDGE_CURVE('',#1833,#1833,#1843,.T.);
#1843 = CIRCLE('',#1844,1.9);
#1844 = AXIS2_PLACEMENT_3D('',#1845,#1846,#1847);
#1845 = CARTESIAN_POINT('',(35.32,-21.5,32.5));
#1846 = DIRECTION('',(0.,0.,1.));
#1847 = DIRECTION('',(1.,0.,0.));
#1848 = CYLINDRICAL_SURFACE('',#1849,1.9);
#1849 = AXIS2_PLACEMENT_3D('',#1850,#1851,#1852);
#1850 = CARTESIAN_POINT('',(35.32,-21.5,41.));
#1851 = DIRECTION('',(-0.,-0.,-1.));
#1852 = DIRECTION('',(1.,0.,0.));
#1853 = ADVANCED_FACE('',(#1854),#1873,.F.);
#1854 = FACE_BOUND('',#1855,.T.);
#1855 = EDGE_LOOP('',(#1856,#1864,#1865,#1866));
#1856 = ORIENTED_EDGE('',*,*,#1857,.F.);
#1857 = EDGE_CURVE('',#1733,#1858,#1860,.T.);
#1858 = VERTEX_POINT('',#1859);
#1859 = CARTESIAN_POINT('',(37.2,21.83,32.5));
#1860 = LINE('',#1861,#1862);
#1861 = CARTESIAN_POINT('',(37.2,21.83,41.));
#1862 = VECTOR('',#1863,1.);
#1863 = DIRECTION('',(-5.E-17,0.,-1.));
#1864 = ORIENTED_EDGE('',*,*,#1732,.T.);
#1865 = ORIENTED_EDGE('',*,*,#1857,.T.);
#1866 = ORIENTED_EDGE('',*,*,#1867,.F.);
#1867 = EDGE_CURVE('',#1858,#1858,#1868,.T.);
#1868 = CIRCLE('',#1869,1.9);
#1869 = AXIS2_PLACEMENT_3D('',#1870,#1871,#1872);
#1870 = CARTESIAN_POINT('',(35.3,21.83,32.5));
#1871 = DIRECTION('',(0.,0.,1.));
#1872 = DIRECTION('',(1.,0.,0.));
#1873 = CYLINDRICAL_SURFACE('',#1874,1.9);
#1874 = AXIS2_PLACEMENT_3D('',#1875,#1876,#1877);
#1875 = CARTESIAN_POINT('',(35.3,21.83,41.));
#1876 = DIRECTION('',(-0.,-0.,-1.));
#1877 = DIRECTION('',(1.,0.,0.));
#1878 = ADVANCED_FACE('',(#1879),#1898,.F.);
#1879 = FACE_BOUND('',#1880,.T.);
#1880 = EDGE_LOOP('',(#1881,#1889,#1890,#1891));
#1881 = ORIENTED_EDGE('',*,*,#1882,.F.);
#1882 = EDGE_CURVE('',#1755,#1883,#1885,.T.);
#1883 = VERTEX_POINT('',#1884);
#1884 = CARTESIAN_POINT('',(-33.18,21.83,32.5));
#1885 = LINE('',#1886,#1887);
#1886 = CARTESIAN_POINT('',(-33.18,21.83,41.));
#1887 = VECTOR('',#1888,1.);
#1888 = DIRECTION('',(-5.E-17,0.,-1.));
#1889 = ORIENTED_EDGE('',*,*,#1754,.T.);
#1890 = ORIENTED_EDGE('',*,*,#1882,.T.);
#1891 = ORIENTED_EDGE('',*,*,#1892,.F.);
#1892 = EDGE_CURVE('',#1883,#1883,#1893,.T.);
#1893 = CIRCLE('',#1894,1.9);
#1894 = AXIS2_PLACEMENT_3D('',#1895,#1896,#1897);
#1895 = CARTESIAN_POINT('',(-35.08,21.83,32.5));
#1896 = DIRECTION('',(0.,0.,1.));
#1897 = DIRECTION('',(1.,0.,0.));
#1898 = CYLINDRICAL_SURFACE('',#1899,1.9);
#1899 = AXIS2_PLACEMENT_3D('',#1900,#1901,#1902);
#1900 = CARTESIAN_POINT('',(-35.08,21.83,41.));
#1901 = DIRECTION('',(-0.,-0.,-1.));
#1902 = DIRECTION('',(1.,0.,0.));
#1903 = ADVANCED_FACE('',(#1904),#1916,.F.);
#1904 = FACE_BOUND('',#1905,.T.);
#1905 = EDGE_LOOP('',(#1906,#1907,#1915));
#1906 = ORIENTED_EDGE('',*,*,#1817,.T.);
#1907 = ORIENTED_EDGE('',*,*,#1908,.T.);
#1908 = EDGE_CURVE('',#1808,#1909,#1911,.T.);
#1909 = VERTEX_POINT('',#1910);
#1910 = CARTESIAN_POINT('',(-35.08,-21.47,31.358364823848));
#1911 = LINE('',#1912,#1913);
#1912 = CARTESIAN_POINT('',(-33.18,-21.47,32.5));
#1913 = VECTOR('',#1914,1.);
#1914 = DIRECTION('',(-0.857167300702,-0.,-0.51503807491));
#1915 = ORIENTED_EDGE('',*,*,#1908,.F.);
#1916 = CONICAL_SURFACE('',#1917,1.9,1.029744258677);
#1917 = AXIS2_PLACEMENT_3D('',#1918,#1919,#1920);
#1918 = CARTESIAN_POINT('',(-35.08,-21.47,32.5));
#1919 = DIRECTION('',(0.,0.,1.));
#1920 = DIRECTION('',(1.,0.,0.));
#1921 = ADVANCED_FACE('',(#1922),#1934,.F.);
#1922 = FACE_BOUND('',#1923,.T.);
#1923 = EDGE_LOOP('',(#1924,#1925,#1933));
#1924 = ORIENTED_EDGE('',*,*,#1842,.T.);
#1925 = ORIENTED_EDGE('',*,*,#1926,.T.);
#1926 = EDGE_CURVE('',#1833,#1927,#1929,.T.);
#1927 = VERTEX_POINT('',#1928);
#1928 = CARTESIAN_POINT('',(35.32,-21.5,31.358364823848));
#1929 = LINE('',#1930,#1931);
#1930 = CARTESIAN_POINT('',(37.22,-21.5,32.5));
#1931 = VECTOR('',#1932,1.);
#1932 = DIRECTION('',(-0.857167300702,-0.,-0.51503807491));
#1933 = ORIENTED_EDGE('',*,*,#1926,.F.);
#1934 = CONICAL_SURFACE('',#1935,1.9,1.029744258677);
#1935 = AXIS2_PLACEMENT_3D('',#1936,#1937,#1938);
#1936 = CARTESIAN_POINT('',(35.32,-21.5,32.5));
#1937 = DIRECTION('',(0.,0.,1.));
#1938 = DIRECTION('',(1.,0.,0.));
#1939 = ADVANCED_FACE('',(#1940),#1952,.F.);
#1940 = FACE_BOUND('',#1941,.T.);
#1941 = EDGE_LOOP('',(#1942,#1943,#1951));
#1942 = ORIENTED_EDGE('',*,*,#1867,.T.);
#1943 = ORIENTED_EDGE('',*,*,#1944,.T.);
#1944 = EDGE_CURVE('',#1858,#1945,#1947,.T.);
#1945 = VERTEX_POINT('',#1946);
#1946 = CARTESIAN_POINT('',(35.3,21.83,31.358364823848));
#1947 = LINE('',#1948,#1949);
#1948 = CARTESIAN_POINT('',(37.2,21.83,32.5));
#1949 = VECTOR('',#1950,1.);
#1950 = DIRECTION('',(-0.857167300702,-0.,-0.51503807491));
#1951 = ORIENTED_EDGE('',*,*,#1944,.F.);
#1952 = CONICAL_SURFACE('',#1953,1.9,1.029744258677);
#1953 = AXIS2_PLACEMENT_3D('',#1954,#1955,#1956);
#1954 = CARTESIAN_POINT('',(35.3,21.83,32.5));
#1955 = DIRECTION('',(0.,0.,1.));
#1956 = DIRECTION('',(1.,0.,0.));
#1957 = ADVANCED_FACE('',(#1958),#1970,.F.);
#1958 = FACE_BOUND('',#1959,.T.);
#1959 = EDGE_LOOP('',(#1960,#1961,#1969));
#1960 = ORIENTED_EDGE('',*,*,#1892,.T.);
#1961 = ORIENTED_EDGE('',*,*,#1962,.T.);
#1962 = EDGE_CURVE('',#1883,#1963,#1965,.T.);
#1963 = VERTEX_POINT('',#1964);
#1964 = CARTESIAN_POINT('',(-35.08,21.83,31.358364823848));
#1965 = LINE('',#1966,#1967);
#1966 = CARTESIAN_POINT('',(-33.18,21.83,32.5));
#1967 = VECTOR('',#1968,1.);
#1968 = DIRECTION('',(-0.857167300702,-0.,-0.51503807491));
#1969 = ORIENTED_EDGE('',*,*,#1962,.F.);
#1970 = CONICAL_SURFACE('',#1971,1.9,1.029744258677);
#1971 = AXIS2_PLACEMENT_3D('',#1972,#1973,#1974);
#1972 = CARTESIAN_POINT('',(-35.08,21.83,32.5));
#1973 = DIRECTION('',(0.,0.,1.));
#1974 = DIRECTION('',(1.,0.,0.));
#1975 = ( GEOMETRIC_REPRESENTATION_CONTEXT(3) 
GLOBAL_UNCERTAINTY_ASSIGNED_CONTEXT((#1979)) 
GLOBAL_UNIT_ASSIGNED_CONTEXT((#1976,#1977,#1978)) REPRESENTATION_CONTEXT
('Context #1','3D Context with UNIT and UNCERTAINTY') );
#1976 = ( LENGTH_UNIT() NAMED_UNIT(*) SI_UNIT(.MILLI.,.METRE.) );
#1977 = ( NAMED_UNIT(*) PLANE_ANGLE_UNIT() SI_UNIT($,.RADIAN.) );
#1978 = ( NAMED_UNIT(*) SI_UNIT($,.STERADIAN.) SOLID_ANGLE_UNIT() );
#1979 = UNCERTAINTY_MEASURE_WITH_UNIT(LENGTH_MEASURE(1.E-07),#1976,
  'distance_accuracy_value','confusion accuracy');
#1980 = PRODUCT_RELATED_PRODUCT_CATEGORY('part',$,(#7));
#1981 = MECHANICAL_DESIGN_GEOMETRIC_PRESENTATION_REPRESENTATION('',(
    #1982),#1975);
#1982 = STYLED_ITEM('color',(#1983),#15);
#1983 = PRESENTATION_STYLE_ASSIGNMENT((#1984,#1990));
#1984 = SURFACE_STYLE_USAGE(.BOTH.,#1985);
#1985 = SURFACE_SIDE_STYLE('',(#1986));
#1986 = SURFACE_STYLE_FILL_AREA(#1987);
#1987 = FILL_AREA_STYLE('',(#1988));
#1988 = FILL_AREA_STYLE_COLOUR('',#1989);
#1989 = COLOUR_RGB('',0.678431390124,0.709803936702,0.741176476869);
#1990 = CURVE_STYLE('',#1991,POSITIVE_LENGTH_MEASURE(0.1),#1992);
#1991 = DRAUGHTING_PRE_DEFINED_CURVE_FONT('continuous');
#1992 = COLOUR_RGB('',9.803921802644E-02,9.803921802644E-02,
  9.803921802644E-02);
ENDSEC;
END-ISO-10303-21;
